<svg xmlns="http://www.w3.org/2000/svg" width="474.03" height="351" viewBox="0 0 474.03 351"><title>top_mv_logo</title><g style="opacity:0.4"><path d="M272.72,31.39c0,.16,0,.32-.08.48a2.81,2.81,0,0,1-.52,1.07,1.42,1.42,0,0,1-1.07.53c-.2,0-.39,0-.58.06a.37.37,0,0,0-.31.31,4,4,0,0,0-.07.54c0,.19,0,.26.24.28a1.77,1.77,0,0,1,1.52,1.46,2.4,2.4,0,0,1-.33,2,1.54,1.54,0,0,1-1.72.61,2.07,2.07,0,0,1-.52-.3c-.13-.09-.23-.21-.36-.3s-.27-.08-.34.07a7.85,7.85,0,0,0-.3.8.22.22,0,0,0,.16.29l.15.06a1.62,1.62,0,0,1,1.21,1.09,2.27,2.27,0,0,1-.39,2.57,1.46,1.46,0,0,1-2.36-.22,6.74,6.74,0,0,1-.35-.73c-.1-.22-.19-.24-.33,0a6.68,6.68,0,0,0-.62.95,15.35,15.35,0,0,1-1.83,2.69A6.09,6.09,0,0,1,262.51,47a2.61,2.61,0,0,1-.57.3.83.83,0,0,1-1.2-.75,3.13,3.13,0,0,0-.06-.4c0-.2-.19-.24-.36-.12a7.73,7.73,0,0,1-1.56.86.24.24,0,0,1-.3-.07,2.18,2.18,0,0,1,.08-3.07,1,1,0,0,1,.31-.2,1.94,1.94,0,0,1,1.26-.07.91.91,0,0,1,.69.86c0,.19,0,.39,0,.58s.12.23.24.16a1.83,1.83,0,0,0,.87-1,1,1,0,0,0-.26-1c-.21-.24-.43-.47-.66-.7a1.7,1.7,0,0,1-.21-2.38,4.26,4.26,0,0,1,.81-.86,9.24,9.24,0,0,0,2.38-3,13.48,13.48,0,0,0,1.36-3.95,6.49,6.49,0,0,0-.19-3.12,11.48,11.48,0,0,0-1.51-3.49,8,8,0,0,0-2.42-2.34,5.42,5.42,0,0,0-2-.64c-.58-.09-1.16-.19-1.75-.27-.31,0-.63-.06-1-.08a.71.71,0,0,0-.19,0c-.19,0-.25.12-.19.31s.21.66.31,1a15.11,15.11,0,0,1,.52,2.68,21.17,21.17,0,0,1,.13,2.82,14.29,14.29,0,0,1-.28,2.25c-.21,1.13-.44,2.26-.62,3.39A18.73,18.73,0,0,0,256,38a6.12,6.12,0,0,0,.44,2.34c.13.3.05.44-.26.53-.48.14-1,.24-1.44.39s-.83.3-1.25.46a.36.36,0,0,0-.25.53.68.68,0,0,1-.22.81c-.31.24-.65.46-1,.67a.61.61,0,0,0-.33.47c0,.19.06.28.25.25a1.18,1.18,0,0,0,.24-.08c.39-.15.78-.33,1.18-.44a.94.94,0,0,1,1.26.77,1.4,1.4,0,0,0,.58.92.21.21,0,0,1,.08.18s-.08.1-.14.11a.77.77,0,0,0-.49.38c-.1.17-.21.33-.32.49a1.22,1.22,0,0,1-1.39.49,1.91,1.91,0,0,1-.94-.57,1.39,1.39,0,0,0-.61-.41c-.08,0-.17-.07-.21,0a.31.31,0,0,0,0,.25c.15.24.32.47.49.7A4.18,4.18,0,0,0,254,48.65a3.92,3.92,0,0,0,3.92-.91l.39-.35c.27-.24.37-.21.53.11a3.41,3.41,0,0,1,.17.39,2.16,2.16,0,0,0,2.38,1.55,4.5,4.5,0,0,0,1.93-.54c.19-.09.37-.2.57-.28a.13.13,0,0,1,.15.21,4.41,4.41,0,0,0-.77,1.21c-.23.46-.38,1-.59,1.42-.39.85-.82,1.68-1.19,2.54-.59,1.4-1.13,2.82-1.69,4.23-.16.41-.27.5-.71.47l-3.31-.18c-.67,0-1.34,0-2-.05-.87,0-1.74-.07-2.61-.09l-2.65,0c-1.1,0-2.19-.06-3.28-.07s-2.39,0-3.59,0l-2.53,0c-.6,0-1.19,0-1.79,0s-1.31,0-2-.07l-.76,0-2.14-.11-1.52-.05L226.15,58c-1.19,0-2.38-.07-3.57,0-.52,0-1,0-1.57-.05s-1.2,0-1.8,0c-1.42,0-2.85.05-4.27.08-.31,0-.6,0-.91.06s-.59-.11-.74-.53c-.62-1.71-1.22-3.43-1.88-5.12a16.05,16.05,0,0,0-1.56-3.06c-.21-.31-.46-.6-.69-.9a.92.92,0,0,1-.08-.2c.07,0,.14-.07.2-.06a1.17,1.17,0,0,1,.38.12,3.07,3.07,0,0,0,1.86.45,5,5,0,0,0,1.18-.25,2,2,0,0,0,1.18-1.34,4.55,4.55,0,0,1,.19-.48c.09-.18.2-.19.35-.07a1.32,1.32,0,0,1,.19.18,4.64,4.64,0,0,0,2.64,1.51,3.21,3.21,0,0,0,1.43-.08,4.35,4.35,0,0,0,1.77-.75,5.13,5.13,0,0,0,1.15-1.29.29.29,0,0,0,0-.25.18.18,0,0,0-.27,0c-.19.11-.38.23-.56.36a3.42,3.42,0,0,1-.93.55,1.07,1.07,0,0,1-1.25-.36,4.66,4.66,0,0,1-.4-.63.83.83,0,0,0-.49-.44c-.19-.06-.21-.15-.05-.29a1.47,1.47,0,0,0,.53-.78c0-.05,0-.11,0-.16a.72.72,0,0,1,.78-.7,3,3,0,0,1,1.51.37l.3.15c.1,0,.2.09.28,0a.28.28,0,0,0,.08-.34.87.87,0,0,0-.24-.29,8.36,8.36,0,0,0-.73-.48,1.29,1.29,0,0,1-.51-.62.25.25,0,0,1,0-.13.52.52,0,0,0-.38-.65c-.37-.16-.74-.32-1.13-.45-.6-.21-1.22-.41-1.83-.62-.28-.09-.32-.17-.22-.44a9.85,9.85,0,0,0,.58-4.07c0-.71-.13-1.41-.2-2.12s-.13-1.22-.22-1.84-.18-.92-.26-1.38a13.13,13.13,0,0,1-.08-2.53c0-.51,0-1,.08-1.54a12.23,12.23,0,0,1,.45-2.5c.16-.6.36-1.18.54-1.76.12-.39.08-.46-.33-.42a30.8,30.8,0,0,0-3.21.42,5.93,5.93,0,0,0-3,1.63A10,10,0,0,0,208,27.62a8.6,8.6,0,0,0-.43,4,12.76,12.76,0,0,0,2,5.42,4.69,4.69,0,0,0,1.25,1.31,4.32,4.32,0,0,1,1.1,1.2,1.56,1.56,0,0,1-.26,2.13,6.4,6.4,0,0,0-.84.9,1.22,1.22,0,0,0,.7,1.85c.34.08.55-.05.56-.4a1.38,1.38,0,0,1,.49-1.1.78.78,0,0,1,.43-.18,4.57,4.57,0,0,1,.9.1,1,1,0,0,1,.63.43,2.21,2.21,0,0,1,.49,1.63,1.88,1.88,0,0,1-.25.66,6.37,6.37,0,0,1-.5.72.18.18,0,0,1-.17,0c-.4-.22-.79-.44-1.18-.68a2.71,2.71,0,0,1-.45-.39c-.17-.17-.3-.23-.45-.17a.38.38,0,0,0-.21.42,1.67,1.67,0,0,1-.34,1,.63.63,0,0,1-.7.26,2.55,2.55,0,0,1-1.34-.77,16.54,16.54,0,0,1-2.24-3,2.09,2.09,0,0,1-.33-.73,1.49,1.49,0,0,0-.24-.49c-.11-.18-.24-.35-.36-.52s-.11-.21-.26-.18-.17.15-.2.27a1.71,1.71,0,0,1-.38.81,1.42,1.42,0,0,1-2.28,0,2.16,2.16,0,0,1-.47-1,2.56,2.56,0,0,1,.51-2.15,1.21,1.21,0,0,1,1-.49l.15,0c.17,0,.24-.12.17-.28-.16-.35-.33-.69-.51-1-.06-.11-.15-.1-.23,0l0,.07a1.47,1.47,0,0,1-2.11.34,1.77,1.77,0,0,1-.75-1.21,2.38,2.38,0,0,1,.49-2.06,1.52,1.52,0,0,1,1.09-.6c.33,0,.38-.13.31-.46,0-.12-.06-.23-.08-.35a.48.48,0,0,0-.53-.44,4.4,4.4,0,0,1-.47,0,1.44,1.44,0,0,1-1.07-.74,2.48,2.48,0,0,1,.24-2.93,1.28,1.28,0,0,1,1-.47c.62,0,.53,0,.63-.54a.92.92,0,0,0-.5-1.12,1.55,1.55,0,0,1-.72-1.19,3.22,3.22,0,0,1,.16-1.63,1.52,1.52,0,0,1,2.09-.93c.54.22.54.08.77-.27l.08-.14c.17-.34.15-.48-.13-.74a2,2,0,0,1-.59-1.23,2.44,2.44,0,0,1,.67-2.18,1.47,1.47,0,0,1,2.07.08c.14.17.25.36.39.54s.28.24.48.07.43-.4.64-.6a.25.25,0,0,0,0-.33l-.27-.46a2.38,2.38,0,0,1,.17-2.72,1.37,1.37,0,0,1,2.09-.24,2.05,2.05,0,0,1,.78,1.55c0,.15,0,.3,0,.45s.12.25.3.2l.61-.15.21-.08c.21-.11.24-.19.13-.4a2.48,2.48,0,0,1-.28-1.35,2.74,2.74,0,0,1,.46-1.4,1.53,1.53,0,0,1,2.53.1,2.51,2.51,0,0,1,.25,2.1c0,.11-.07.23-.1.34a.19.19,0,0,0,.17.26l.08,0,1.36.09a1.45,1.45,0,0,0,.31,0c.13,0,.16-.1.12-.22a4.36,4.36,0,0,1-.21-.69,3.3,3.3,0,0,1,.13-1.47,1.81,1.81,0,0,1,1.62-1.1,1.63,1.63,0,0,1,1.27.93,2.56,2.56,0,0,1-.09,2.53l-.2.37a.22.22,0,0,0,.09.31,1.28,1.28,0,0,0,1.49.13,11.41,11.41,0,0,1,3.56-1.28,17.43,17.43,0,0,1,3-.34c.49,0,1,0,1.48,0s1.05.12,1.58.18c.25,0,.49.06.74.07a.44.44,0,0,0,.28-.1,1.34,1.34,0,0,1,.78-.32l.18,0c.22,0,.3-.13.3-.35,0-.41,0-.81,0-1.22a5.6,5.6,0,0,1,.44-2.16A5.65,5.65,0,0,1,235,9.57a2.72,2.72,0,0,1,.62-.32.25.25,0,0,0,.17-.27c0-.85,0-1.71,0-2.58h-2.63V3.25h2.62V0h2.45V3.24h2.6V6.4H238.2c0,.07,0,.12,0,.17,0,.83,0,1.67,0,2.5a.45.45,0,0,0,.25.44,3.87,3.87,0,0,1,1.65,1.86,5.65,5.65,0,0,1,.51,3.1c0,.19,0,.38,0,.56a.43.43,0,0,0,.44.5,2,2,0,0,1,.57.13,2.42,2.42,0,0,0,1.1.13c.34,0,.68,0,1,0,.91,0,1.82,0,2.73,0a20.07,20.07,0,0,1,2.35.37,11.66,11.66,0,0,1,3.82,1.52.64.64,0,0,0,.59.06l.74-.25c.25-.08.32-.22.21-.46a2.68,2.68,0,0,1-.29-1.33,2.87,2.87,0,0,1,.28-1.12,1.54,1.54,0,0,1,2.66-.24,2.07,2.07,0,0,1,.39,1.52c0,.25-.07.5-.08.76s.08.31.29.31.61,0,.91,0,.27-.15.23-.42a9.06,9.06,0,0,1-.09-1.13,1.8,1.8,0,0,1,1.23-1.73,1.39,1.39,0,0,1,1.74.75,2.8,2.8,0,0,1,.11,2.27c0,.12-.09.24-.12.37a.26.26,0,0,0,.18.36l.8.25c.18.05.25,0,.28-.19a3.54,3.54,0,0,1,.25-1.15,2.12,2.12,0,0,1,.72-.9,1.42,1.42,0,0,1,2,.54,2.52,2.52,0,0,1-.18,2.9l-.11.16c-.1.16-.07.24.07.36l.62.55c.25.22.39.2.57-.09a3.31,3.31,0,0,1,.38-.53,1.26,1.26,0,0,1,1.44-.33,1.64,1.64,0,0,1,1,.89,2.55,2.55,0,0,1-.07,2.38,2.28,2.28,0,0,1-.47.52c-.16.15-.2.23-.11.43s.21.43.32.64.17.22.38.15.35-.12.53-.16a1.42,1.42,0,0,1,1.63.8,2.75,2.75,0,0,1,0,2.5,1.6,1.6,0,0,1-.78.75c-.29.13-.33.22-.28.54,0,.16,0,.32.06.48,0,.33.1.4.43.43a1.46,1.46,0,0,1,1,.38,2.51,2.51,0,0,1,.65,1.25c0,.13,0,.27.07.4ZM250.62,26h.05c-.07-.5-.1-1-.2-1.51a5,5,0,0,0-1.95-2.9,11.91,11.91,0,0,0-4.88-2.25c-.68-.15-1.39-.21-2.08-.3a.46.46,0,0,0-.56.43c0,.12,0,.24-.05.35-.17,1-.38,2-.5,3.05a28.15,28.15,0,0,0-.22,3c0,1.45,0,2.9.06,4.35q0,.92.11,1.83c.09.9.17,1.81.32,2.7s.32,1.63.52,2.44a4.83,4.83,0,0,0,.64,1.51.38.38,0,0,1-.08.55l-.72.45-.7.41-2,1.17c-.26.16-.29.23-.2.52a.65.65,0,0,1,0,.58,3.42,3.42,0,0,1-.47.53c-.21.19-.43.36-.64.55a.58.58,0,0,0-.15.23A.34.34,0,0,0,237,44a.27.27,0,0,0,.33-.06l.09-.09a2.39,2.39,0,0,1,.54-.37,4.34,4.34,0,0,1,1-.22.7.7,0,0,1,.83.6c0,.13.06.26.09.39a.48.48,0,0,0,.36.4s.06,0,.08,0a.8.8,0,0,1,.16.26s-.09.14-.15.17a1,1,0,0,0-.46.6,2.4,2.4,0,0,1-.31.65,1,1,0,0,1-1,.42,2.22,2.22,0,0,1-1.12-.6.76.76,0,0,0-.61-.28l-.2,0a.92.92,0,0,0,.06.2,4.1,4.1,0,0,0,1,1,3.41,3.41,0,0,0,3.57.58,5.38,5.38,0,0,0,1.85-1.28c.25-.24.33-.23.55,0a5.5,5.5,0,0,0,.74.79,4.58,4.58,0,0,0,4.24.66,4.35,4.35,0,0,0,2.13-1.42.16.16,0,0,0-.05-.29.55.55,0,0,0-.5,0c-.4.18-.81.37-1.22.52a1,1,0,0,1-1.05-.27,1.58,1.58,0,0,1-.43-1,.74.74,0,0,0-.28-.54.23.23,0,0,1,.07-.43.72.72,0,0,0,.37-.34c.1-.19.2-.37.32-.55a.77.77,0,0,1,.78-.35,2.54,2.54,0,0,1,1.59.86s.14.1.17.09a.28.28,0,0,0,.13-.18.48.48,0,0,0-.2-.5c-.36-.24-.71-.49-1.06-.75-1.24-.92-2.4-1.94-3.54-3a.47.47,0,0,1-.07-.68c.55-.92,1.12-1.82,1.62-2.77A31.52,31.52,0,0,0,250,30.13,14.36,14.36,0,0,0,250.62,26Zm-17.13,0h0c0-.47,0-.93,0-1.39-.09-1-.21-1.95-.35-2.91-.11-.74-.26-1.48-.4-2.21a.47.47,0,0,0-.55-.43l-1.23.06a11.75,11.75,0,0,0-3.46.73,10.08,10.08,0,0,0-3.27,1.85,4.91,4.91,0,0,0-1.64,2.8,9.25,9.25,0,0,0-.06,2.84,20,20,0,0,0,.9,3.92,34.49,34.49,0,0,0,2.24,5.5c.39.72.79,1.43,1.19,2.14.16.28.15.38-.08.61s-.36.36-.55.53c-1,.89-2.12,1.72-3.24,2.5a2.17,2.17,0,0,0-.27.25c-.14.14-.26.28-.41.41a.3.3,0,0,0,0,.46c.11.13.21.13.37,0a2.81,2.81,0,0,1,1.22-.68,1,1,0,0,1,1.11.36,5.84,5.84,0,0,1,.35.55,1,1,0,0,0,.47.43s.11.07.11.09a.24.24,0,0,1-.1.14.7.7,0,0,0-.35.45c0,.13-.07.27-.1.41a1.14,1.14,0,0,1-1.59.9c-.39-.13-.77-.3-1.16-.45a.62.62,0,0,0-.28-.07.37.37,0,0,0-.23.15s0,.15.05.19c.2.21.4.42.62.61a4.37,4.37,0,0,0,3.74,1,4,4,0,0,0,2.72-1.8c.14-.2.14-.29,0-.45s-.6-.56-.89-.85a2,2,0,0,1-.38-.5,1.89,1.89,0,0,1,.32-1.91,1.25,1.25,0,0,1,1.55-.2,2.09,2.09,0,0,1,.9,1.91,1.75,1.75,0,0,1-.7,1.27c-.4.35-.42.52-.08.94l.06.08a5.67,5.67,0,0,0,1.39,1.16,3,3,0,0,0,2,.47,4.51,4.51,0,0,0,2.92-1.75s.06-.16,0-.18a.28.28,0,0,0-.21-.06,1.84,1.84,0,0,0-.37.16c-.34.18-.68.35-1,.54a1.1,1.1,0,0,1-1.47-.37,3.77,3.77,0,0,1-.34-.76.7.7,0,0,0-.38-.49c-.17-.07-.18-.18,0-.28a1.31,1.31,0,0,0,.63-.95.56.56,0,0,1,.49-.48,2,2,0,0,1,1.43.26l.56.39c.15.11.28,0,.31-.14a.48.48,0,0,0-.22-.49,3.45,3.45,0,0,1-.76-.75.86.86,0,0,1-.26-.72.59.59,0,0,0-.35-.66c-1.13-.69-2.25-1.39-3.38-2.1-.25-.15-.25-.25-.1-.49a9,9,0,0,0,.57-.94,14.39,14.39,0,0,0,1.07-3.44,42.45,42.45,0,0,0,.82-5.31C233.36,27.9,233.42,26.94,233.49,26Zm11.05,29.58a1.75,1.75,0,0,0,1.1-.38,1.67,1.67,0,0,0-.2-2.87,2,2,0,0,0-2.7,1c-.08.26-.17.29-.41.17s-.41-.21-.62-.29l-2.2-.87-2.67-1.09a1.51,1.51,0,0,0-1.33,0,3.16,3.16,0,0,1-.46.19l-4.79,1.61a1.63,1.63,0,0,1-.51,0,.22.22,0,0,1-.16-.13,2,2,0,0,0-1.08-1.13,1.8,1.8,0,0,0-1.79.18,1.37,1.37,0,0,0-.79,1.1,2.82,2.82,0,0,0,0,.62,1.23,1.23,0,0,0,.16.48,2.28,2.28,0,0,0,1,.82,1.58,1.58,0,0,0,1.53-.11,2.06,2.06,0,0,0,.89-1.14c.1-.28.21-.31.47-.16s.33.19.5.27l2.24,1,2.87,1.31a1,1,0,0,0,.79,0l4.19-1.73c.5-.21,1-.44,1.48-.66.34-.15.46-.1.59.25l0,.08A1.93,1.93,0,0,0,244.54,55.57Zm9.09,1.4,0,0a1.62,1.62,0,0,0,.3,0c.23-.09.45-.2.69-.28l1.79-.57,4.14-1.33c.07,0,.16-.09.16-.14s-.08-.13-.13-.18a.56.56,0,0,0-.16-.07l-1.58-.67-4.44-1.88a.91.91,0,0,0-.48-.05c-.31.05-.61.15-.91.23L248.67,53c-.55.14-1.09.3-1.64.45-.07,0-.16.07-.17.11a.36.36,0,0,0,.07.23.47.47,0,0,0,.18.11l5.8,2.78A6.74,6.74,0,0,0,253.63,57Zm-34.47-.62a5.74,5.74,0,0,0,.6-.18l4.62-2,1.08-.49c.11-.05.21-.13.18-.28s-.13-.16-.24-.18a3.34,3.34,0,0,1-.36-.08l-2.58-.82c-1-.33-2-.68-3-1a.81.81,0,0,0-.49,0L214.48,53c-.65.24-1.32.45-2,.68,0,0-.12.09-.11.13a.22.22,0,0,0,.1.16,3,3,0,0,0,.37.15l5.7,2.08C218.76,56.25,219,56.29,219.16,56.35Zm17.5-30.43a1.15,1.15,0,0,0-1.07.77,2.12,2.12,0,0,0-.1,1.2,1.48,1.48,0,0,0,.87,1.11.13.13,0,0,1,0,.23c-.06.05-.14.08-.2.13a3.39,3.39,0,0,0-.56.53,1.81,1.81,0,0,0,.47,2.35.8.8,0,0,0,.6.14,1.37,1.37,0,0,0,1.07-1.14,4.2,4.2,0,0,0,0-.58,1.49,1.49,0,0,0-.6-1.25c-.38-.28-.38-.29,0-.54a1.25,1.25,0,0,0,.58-.79,2.67,2.67,0,0,0,0-1.2A1.17,1.17,0,0,0,236.66,25.92Zm1.22,8.37a1.83,1.83,0,0,0-.25-.93,1.06,1.06,0,0,0-1-.6,1.13,1.13,0,0,0-1,.74,2,2,0,0,0-.12,1.11,1.45,1.45,0,0,0,.84,1.22.34.34,0,0,1,.14.1c.09.11,0,.2-.09.24a1.49,1.49,0,0,0-1,.76,1.78,1.78,0,0,0,0,1.46,1.63,1.63,0,0,0,.68.81.93.93,0,0,0,1.09-.22,2,2,0,0,0,.47-.95,1.56,1.56,0,0,0-.9-1.86c-.06,0-.1-.09-.15-.14a.68.68,0,0,1,.17-.13,1.29,1.29,0,0,0,.66-.4A2.31,2.31,0,0,0,237.88,34.29Zm-18.81,4.32a2,2,0,0,0,1.11,1.89.68.68,0,0,0,.56.1,2.19,2.19,0,0,0,1.17-3.46,1.4,1.4,0,0,0-1.4-.61,1.58,1.58,0,0,0-.93.55A2.31,2.31,0,0,0,219.06,38.61Zm34.36.57a2.4,2.4,0,0,0-.2-1.11,1.52,1.52,0,0,0-2.85-.07,2.18,2.18,0,0,0-.21,1.26,2.51,2.51,0,0,0,.77,1.51.69.69,0,0,0,.37.15,4.8,4.8,0,0,0,.64,0c.16,0,.36,0,.48,0A1.8,1.8,0,0,0,253.42,39.18ZM219.92,27a1.89,1.89,0,0,0-.38-1.24,1.28,1.28,0,0,0-.89-.57,1.14,1.14,0,0,0-1,.5,1.91,1.91,0,0,0-.42,1.22,1.62,1.62,0,0,0,.66,1.45,1,1,0,0,0,1.23,0A1.79,1.79,0,0,0,219.92,27Zm33,.42a1.92,1.92,0,0,0,.54,1.34,1.09,1.09,0,0,0,.66.36,1.25,1.25,0,0,0,1.32-.81,3.65,3.65,0,0,0,.14-.79,1.64,1.64,0,0,0-.52-1.44A1,1,0,0,0,253.6,26,1.87,1.87,0,0,0,252.92,27.38Zm0-6.15A1.67,1.67,0,0,0,252.4,20a1.05,1.05,0,0,0-1.58.06,2.89,2.89,0,0,0-.22.28,1.81,1.81,0,0,0,.62,2.62.71.71,0,0,0,.68.06A1.86,1.86,0,0,0,253,21.23ZM222.75,21a2.19,2.19,0,0,0-.48-1.33,1.06,1.06,0,0,0-1.77.08,2,2,0,0,0-.33,1.68,1.55,1.55,0,0,0,.84,1.1.86.86,0,0,0,.88,0A1.81,1.81,0,0,0,222.75,21ZM219.59,36a1.32,1.32,0,0,0,1.09-.61,2,2,0,0,0,.05-2,1.2,1.2,0,0,0-2.08,0,2,2,0,0,0,0,2.17A1,1,0,0,0,219.59,36Zm.7-5.34a1.89,1.89,0,0,0-.7-1.46A.68.68,0,0,0,219,29a1.66,1.66,0,0,0-1,.63,1.83,1.83,0,0,0,.57,2.61,1,1,0,0,0,1.07-.1A2,2,0,0,0,220.28,30.67Zm34,4.11a1.13,1.13,0,0,0-.27-.86c-.09-.12-.19-.24-.29-.35a1,1,0,0,0-1.33-.14,1.85,1.85,0,0,0-.3,2.66,1.06,1.06,0,0,0,1,.46,1.39,1.39,0,0,0,.81-.48A1.83,1.83,0,0,0,254.3,34.78Zm.78-3.74a1.76,1.76,0,0,0-.68-1.22.91.91,0,0,0-1.22,0,1.68,1.68,0,0,0-.7,1.74,1.64,1.64,0,0,0,1,1.35.57.57,0,0,0,.32,0A1.79,1.79,0,0,0,255.08,31Zm-36.93-7.56a1.83,1.83,0,0,0,.38,1.14,1.1,1.1,0,0,0,1.67.13,1.73,1.73,0,0,0-.13-2.7.9.9,0,0,0-.94-.13A1.69,1.69,0,0,0,218.16,23.48Zm36.63.55c0-.07,0-.14,0-.21a1.6,1.6,0,0,0-.68-1.27.85.85,0,0,0-1-.12,1.7,1.7,0,0,0-.83,1.16,2.58,2.58,0,0,0,.06,1,1.37,1.37,0,0,0,1,1,.74.74,0,0,0,.41,0A1.58,1.58,0,0,0,254.79,24ZM237.93,24a2,2,0,0,0-.32-1.11,1,1,0,0,0-1.06-.47,1.48,1.48,0,0,0-.9.81,1.78,1.78,0,0,0,.46,2.13.92.92,0,0,0,1.11,0A1.75,1.75,0,0,0,237.93,24Zm0-3.38a2.52,2.52,0,0,0-.26-1.26.75.75,0,0,0-.26-.28,1.16,1.16,0,0,0-1.42.15,1.75,1.75,0,0,0,.29,2.69.71.71,0,0,0,.82,0A1.57,1.57,0,0,0,238,20.58ZM246,18a1.13,1.13,0,0,0,.54,1.1.6.6,0,0,0,.53.13,1.3,1.3,0,0,0,1-1.12,1.16,1.16,0,0,0-.49-1.21.83.83,0,0,0-1.25.13A1.15,1.15,0,0,0,246,18Zm-20.9-.5a1.5,1.5,0,0,0,.82,1.39.33.33,0,0,0,.14,0,1,1,0,0,0,.87-.46,1.39,1.39,0,0,0-.15-1.8.83.83,0,0,0-1-.2A1.15,1.15,0,0,0,225.08,17.54Zm25.27,1.82a3,3,0,0,0-.06-.4,1,1,0,0,0-.72-.8.89.89,0,0,0-1,.6,1.65,1.65,0,0,0,.07,1.45.9.9,0,0,0,1.45.07A1.84,1.84,0,0,0,250.35,19.36ZM224.67,19a1.3,1.3,0,0,0-.33-1,.8.8,0,0,0-1.19,0,1.42,1.42,0,0,0-.4,1,1.17,1.17,0,0,0,.53,1,.79.79,0,0,0,1.11-.18A1.42,1.42,0,0,0,224.67,19Zm20.8-1.55h0a1.93,1.93,0,0,0,0-.24.8.8,0,0,0-.57-.65.67.67,0,0,0-.74.23A1.2,1.2,0,0,0,244,18a.73.73,0,0,0,.68.42.69.69,0,0,0,.65-.46A4.55,4.55,0,0,0,245.47,17.43Zm-17.77-.23A1.27,1.27,0,0,0,228,18a.56.56,0,0,0,.87.08,1.22,1.22,0,0,0,.39-1,.77.77,0,0,0-.57-.75.72.72,0,0,0-.82.34A3.81,3.81,0,0,0,227.71,17.2Zm3.63.26a4.77,4.77,0,0,0-.16-.52.46.46,0,0,0-.41-.29.7.7,0,0,0-.7.44,1,1,0,0,0,.29,1.08.48.48,0,0,0,.44.1A.89.89,0,0,0,231.33,17.47Zm10.47.25a2.2,2.2,0,0,0,.12.38.56.56,0,0,0,.86.21.84.84,0,0,0-.07-1.43.42.42,0,0,0-.51,0A1,1,0,0,0,241.81,17.72Z" style="fill-rule:evenodd"/><path d="M63.65,281c3-9.11,6.09-13.55,11.45-19.2-7.15-6.36-15.65-9.82-30-13.6,54.12-27.42,88.71-29.52,92-20.57,3.87,10.57-10.07,9.18-19.48,11.36-6.51,1.71-24.92,3.86-26.25,13.48-.5,10.68.31,22.34.31,22.34S79.58,274.77,63.65,281Z" style="fill-rule:evenodd"/><path d="M96.27,251.41c0-6,19.52-9.13,35.22-12.45,4.48-.95,7.79-1.88,9.43-7.29,0,4.84,0,25.38-3.87,33.6C119.7,260.43,96.27,264.05,96.27,251.41Z" style="fill-rule:evenodd"/><path d="M410.47,281c-3-9.11-6.09-13.55-11.46-19.2,7.15-6.36,15.65-9.82,30-13.6-54.12-27.42-88.72-29.52-92-20.57-3.87,10.57,10.07,9.18,19.48,11.36,6.51,1.71,24.92,3.86,26.25,13.48.5,10.68-.31,22.34-.31,22.34S394.54,274.77,410.47,281Z" style="fill-rule:evenodd"/><path d="M377.85,251.41c0-6-19.52-9.13-35.22-12.45-4.48-.95-7.79-1.88-9.43-7.29,0,4.84,0,25.38,3.87,33.6C354.42,260.43,377.85,264.05,377.85,251.41Z" style="fill-rule:evenodd"/><path d="M310.7,287.86c-2-.87-4.78-.6-6.84,0a13,13,0,0,0-1.9.7c0,.39,1.56,6.06,1.87,7.14l.27,1c.38,1.32,1.76,5.92,2.1,6.78a6,6,0,0,0,2.53-.24c4.22-1.2,7.48-5.1,6-10.33A7.27,7.27,0,0,0,310.7,287.86Z" style="fill-rule:evenodd"/><path d="M259.17,299.36c-.28,2.36-.93,7-1,7.85l4.76-.79c-.81-1.56-3.07-5.76-3.72-7.07Z" style="fill-rule:evenodd"/><path d="M288.36,293.38c-.07,2.38-.31,7-.3,7.91l4.67-1.21c-.94-1.48-3.57-5.46-4.33-6.71Z" style="fill-rule:evenodd"/><path d="M375,282.15c.6-8.87,5.14-14.59,5.14-27.44-1.42,2.63-3,4.63-6.28,5.73-17.22,5.81-30.25,3.39-45.93,8.86C297,280.09,268.53,289.87,237.05,290c-29.25.12-57-7.44-85.24-17.17-20.9-7.2-51.43-7.43-55.55-13.65,2.91,10.15,4.44,21.8,4.34,24.87-.29,8.64-3.38,7.08-3.38,15.66,46.67,5.59,94.17,29.31,139.82,28.93s84.79-22.09,140.78-27.27C378.67,289.55,374.46,290.61,375,282.15Z" style="fill-rule:evenodd"/><circle cx="237.06" cy="273.31" r="4.91"/><path d="M206.58,254.27c8.83,1.09,16.66,9.81,19.31,17.8a26.77,26.77,0,0,1-11.49-5.54A22.1,22.1,0,0,1,206.58,254.27Z" style="fill-rule:evenodd"/><path d="M199.47,273.52c6.14-5.44,18.37-6.13,26.42-1.45a34.1,34.1,0,0,1-13,4C208.18,276.52,203.91,275,199.47,273.52Z" style="fill-rule:evenodd"/><path d="M186.6,240.28c10.55,3.26,18.24,15.62,19.74,26A33.23,33.23,0,0,1,193.49,257,27.48,27.48,0,0,1,186.6,240.28Z" style="fill-rule:evenodd"/><path d="M173.83,261.41c8.83-5.08,23.88-2.86,32.5,4.85a42.23,42.23,0,0,1-16.84,1.66C183.68,267.23,178.87,264.28,173.83,261.41Z" style="fill-rule:evenodd"/><path d="M173.78,225.62c7.85,5.7,10.74,18.16,9.05,27.19a29.19,29.19,0,0,1-8.06-11.36A24.12,24.12,0,0,1,173.78,225.62Z" style="fill-rule:evenodd"/><path d="M156.2,241.66c8.62-2.42,21,2.73,26.64,11.16a37.18,37.18,0,0,1-14.7-2.23C163.33,248.75,159.87,245.19,156.2,241.66Z" style="fill-rule:evenodd"/><path d="M163,210c6.86,6.06,8.44,18,6,26.34A27.54,27.54,0,0,1,162.5,225,22.76,22.76,0,0,1,163,210Z" style="fill-rule:evenodd"/><path d="M144.93,223.71c8.3-1.56,19.46,4.28,24.1,12.67a35,35,0,0,1-13.63-3.31C151,231,148.08,227.33,144.93,223.71Z" style="fill-rule:evenodd"/><path d="M158.33,193.83c4.51,7.31,2.67,18.47-1.75,25.3a25.84,25.84,0,0,1-2.77-12A21.36,21.36,0,0,1,158.33,193.83Z" style="fill-rule:evenodd"/><path d="M138.91,200.67c7.85,1.08,16,9.62,17.67,18.46a32.84,32.84,0,0,1-11.14-7C142.19,209,140.64,204.84,138.91,200.67Z" style="fill-rule:evenodd"/><path d="M155.37,178.86c2.92,7-.24,16.51-5.05,21.86a22.86,22.86,0,0,1-.74-10.87A18.91,18.91,0,0,1,155.37,178.86Z" style="fill-rule:evenodd"/><path d="M136.69,182.68c6.78,1.76,13.1,10.1,13.63,18a29.09,29.09,0,0,1-9.07-7.3C138.72,190.29,137.78,186.52,136.69,182.68Z" style="fill-rule:evenodd"/><path d="M142.76,163.85C148.43,169,149.61,179,147.5,186a23.1,23.1,0,0,1-5.33-9.62A19.07,19.07,0,0,1,142.76,163.85Z" style="fill-rule:evenodd"/><path d="M269.08,254.27c-8.82,1.09-16.66,9.81-19.31,17.8a26.78,26.78,0,0,0,11.49-5.54A22.09,22.09,0,0,0,269.08,254.27Z" style="fill-rule:evenodd"/><path d="M276.19,273.52c-6.14-5.44-18.37-6.13-26.42-1.45a34.1,34.1,0,0,0,13,4C267.47,276.52,271.75,275,276.19,273.52Z" style="fill-rule:evenodd"/><path d="M289.06,240.28c-10.56,3.26-18.24,15.62-19.73,26A33.25,33.25,0,0,0,282.17,257,27.48,27.48,0,0,0,289.06,240.28Z" style="fill-rule:evenodd"/><path d="M301.83,261.41c-8.84-5.08-23.88-2.86-32.5,4.85a42.22,42.22,0,0,0,16.84,1.66C292,267.23,296.79,264.28,301.83,261.41Z" style="fill-rule:evenodd"/><path d="M301.88,225.62c-7.85,5.7-10.74,18.16-9.05,27.19a29.21,29.21,0,0,0,8.05-11.36A24.11,24.11,0,0,0,301.88,225.62Z" style="fill-rule:evenodd"/><path d="M319.46,241.66c-8.62-2.42-21,2.73-26.63,11.16a37.17,37.17,0,0,0,14.7-2.23C312.33,248.75,315.79,245.19,319.46,241.66Z" style="fill-rule:evenodd"/><path d="M312.67,210c-6.86,6.06-8.44,18-6,26.34A27.58,27.58,0,0,0,313.16,225,22.79,22.79,0,0,0,312.67,210Z" style="fill-rule:evenodd"/><path d="M330.73,223.71c-8.3-1.56-19.46,4.28-24.1,12.67a35,35,0,0,0,13.63-3.31C324.61,231,327.57,227.33,330.73,223.71Z" style="fill-rule:evenodd"/><path d="M317.33,193.83c-4.51,7.31-2.67,18.47,1.75,25.3a25.84,25.84,0,0,0,2.77-12A21.37,21.37,0,0,0,317.33,193.83Z" style="fill-rule:evenodd"/><path d="M336.75,200.67c-7.85,1.08-16,9.62-17.67,18.46a32.84,32.84,0,0,0,11.14-7C333.47,209,335,204.84,336.75,200.67Z" style="fill-rule:evenodd"/><path d="M320.29,178.86c-2.92,7,.24,16.51,5.05,21.86a22.87,22.87,0,0,0,.74-10.87A18.89,18.89,0,0,0,320.29,178.86Z" style="fill-rule:evenodd"/><path d="M339,182.68c-6.78,1.76-13.1,10.1-13.63,18a29.06,29.06,0,0,0,9.07-7.3C336.94,190.29,337.88,186.52,339,182.68Z" style="fill-rule:evenodd"/><path d="M332.9,163.85C327.23,169,326.05,179,328.16,186a23.08,23.08,0,0,0,5.33-9.62A19.06,19.06,0,0,0,332.9,163.85Z" style="fill-rule:evenodd"/><polygon points="191.88 116.16 192.44 121.88 197.46 124.67 192.2 126.97 191.1 132.61 187.29 128.31 181.58 129.01 184.49 124.06 182.06 118.85 187.67 120.09 191.88 116.16" style="fill-rule:evenodd"/><polygon points="212.41 105.3 214.21 110.77 219.72 112.39 215.08 115.78 215.24 121.52 210.58 118.16 205.17 120.09 206.93 114.62 203.42 110.07 209.17 110.05 212.41 105.3" style="fill-rule:evenodd"/><polygon points="182.38 138 185.5 142.83 191.24 143 187.61 147.46 189.23 152.98 183.87 150.9 179.12 154.14 179.43 148.4 174.88 144.89 180.44 143.41 182.38 138" style="fill-rule:evenodd"/><path d="M209.63,343.29c0-1.41,0-3.91-.1-4.4-.27-.06-1.13-.17-1.47-.22l-.06-.33,1.27,0,1.25,0c.45,0,3.78,0,4.16-.11a6.79,6.79,0,0,0,.11-.74l.32-.06c-.07.33-.25,2.77-.28,3.26l-.31-.11c0-.11,0-.82,0-1.13-.25-.45-2.43-.66-3.19-.66,0,.22-.1,3.25-.1,4.18v.31a12.65,12.65,0,0,0,2.93-.25,4.08,4.08,0,0,0,.14-.68l.3,0c0,.28-.3,2.44-.37,2.94l-.27-.13c0-.33,0-.74,0-1.05a7.23,7.23,0,0,0-2.76-.35v.31c0,1,.06,4.39.1,4.84a7.45,7.45,0,0,0,3.4-.53c.15-.55.23-1,.31-1.38l.33-.09c-.1.46-.41,2.85-.47,3.63l-.3-.06c0-.42,0-.71,0-1-.41-.08-3.55-.14-4.44-.14-.48,0-1.6,0-2.15.06l.07-.33a10,10,0,0,0,1.46-.22c.06-.28.1-3.18.1-4.91Z"/><path d="M216.52,351c0-.22.23-2,.23-2.58,0-.41.09-2.11,0-2.48l.33.09a12.23,12.23,0,0,0,.1,1.38,2.44,2.44,0,0,0,2.19,1.71,2,2,0,0,0,2-2c0-1.27-.89-1.9-1.81-2.56-1.39-1-2.49-1.89-2.49-3.66a2.72,2.72,0,0,1,2.91-2.77,7.25,7.25,0,0,1,1.91.28c.1-.38.17-.85.25-1.27l.33,0a35.24,35.24,0,0,0-.34,4.31l-.33-.16a11.51,11.51,0,0,0-.06-1.2,2.09,2.09,0,0,0-1.88-1.41,1.59,1.59,0,0,0-1.73,1.57c0,1,1,1.57,2,2.33s2.36,1.7,2.36,3.68a3.28,3.28,0,0,1-3.48,3.43,4.61,4.61,0,0,1-2-.39c-.07.3-.21,1.05-.31,1.64Z"/><path d="M227.21,342.92c0-1.16,0-3.49-.07-3.85-2.26,0-3.28.39-3.67.66a12.6,12.6,0,0,0-.28,1.48l-.33.09c.06-.76.23-2.72.21-4l.33.06c0,.2,0,.69.08,1,.23,0,2.66.15,4.57.15s4.5-.11,4.73-.15c.06-.19.14-.68.2-1l.35-.06c-.08.36-.41,3.59-.45,4.06l-.33-.09c0-.63,0-1.28,0-1.62a9.34,9.34,0,0,0-3.69-.66c0,.42-.07,2.72-.07,3.85v.71c0,1.38,0,4,.07,5.3.27,0,1.56.19,1.83.22l.06.33c-.34,0-2-.06-2.77-.06s-2.34,0-2.75.06l.07-.33,1.81-.22c0-1.23.07-3.93.07-5.3Z"/><path d="M234,349.65l0-1.68,1.64-.35.07,1.68Z"/><path d="M243.62,346.09c-.06.58-.2,1.67-.31,2.63s-.09.74-.17,2l-.31-.11a8.75,8.75,0,0,0-.07-1.12c-1.54,0-2.49,0-3.43,0h-3a23.27,23.27,0,0,0,3.09-2.75,6.73,6.73,0,0,0,2.08-4.45c0-2.48-1.35-3.37-2.31-3.37a1.75,1.75,0,0,0-1.32.41c-.1.47-.28,1.64-.33,1.92l-.34.08a30.13,30.13,0,0,0,.3-4l.33.11c0,.38,0,.6.1,1a3.79,3.79,0,0,1,.69-.16,5.08,5.08,0,0,1,.87-.06c2.34,0,3.65,1.26,3.65,3.19s-1.08,3.46-2.55,5a23.35,23.35,0,0,1-2.11,1.91v0l1.47,0a7,7,0,0,0,3-.58,13.8,13.8,0,0,0,.37-1.53Z"/><path d="M245.7,348.22a7,7,0,0,1-1-3.95c0-3.44,1.83-6.12,4.12-6.12a3.29,3.29,0,0,1,2.92,1.56,6.91,6.91,0,0,1,1,3.82c0,3.44-1.83,6.13-4.13,6.13A3.42,3.42,0,0,1,245.7,348.22Zm2.79-9.47c-1.67,0-2.24,2.63-2.24,4.66,0,2.18.6,5.66,2.58,5.66,1.67,0,2.24-2.64,2.24-4.65C251.07,342.21,250.49,338.75,248.49,338.75Z"/><path d="M257,343.85c0,2.06,0,4.75.07,5.06.28.06,1.7.2,2,.24l.07.33c-.37,0-2.29-.06-3-.06s-2.75,0-3.13.06l.06-.33,2.27-.24c.06-.68.07-3.21.07-4.76v-1.05c0-.52,0-3-.07-3.66-.61,0-1.66.23-2.24.33l-.1-.33c.52-.14,2.62-.9,4.13-1.43-.07.79-.17,3.19-.17,5.17Z"/><path d="M259.74,341c.13-.88.24-2.83.31-3.71l.3.11c0,.3,0,.6,0,1,.58.06,1.32.06,2.15.06h3.2c-.85,1.08-2.55,3.1-3.11,3.87,2,.58,3.23,1.68,3.23,3.19a4.15,4.15,0,0,1-1.26,2.91,4.5,4.5,0,0,1-3.26,1.29,3.87,3.87,0,0,1-1.4-.17,2.24,2.24,0,0,0-.2.69l-.33,0a26.66,26.66,0,0,0,.23-3.62l.33.16a12,12,0,0,0,.06,1.35,2.14,2.14,0,0,0,1.93.93,2.55,2.55,0,0,0,2.36-2.64c0-1.75-1.41-2.74-3.17-3.19.38-.44,2.08-2.5,2.86-3.59h-2.09a4.6,4.6,0,0,0-1.56.2,5.32,5.32,0,0,0-.25,1.05Z"/><polygon points="127.35 343.38 192.9 340.97 199.97 343.38 192.9 345.8 127.35 343.38"/><polygon points="346.78 343.38 281.23 340.97 274.15 343.38 281.23 345.8 346.78 343.38"/><path d="M118.72,64.45l-.16-1.22L121.09,65l.75-6.46c3,2.2,4.05,5,3.8,8.61l1.6-1.11-1.16,2.64c.09.16.13.34.23.4C131.87,72,137.42,75,143,77.9a2.23,2.23,0,0,1,1.3,3.11c-1,3.06-2.53,5.3-6.12,5.08a4.86,4.86,0,0,1-2.56-.69,4.09,4.09,0,0,0-4.16-.71c-5,1.62-5.87,1.6-11.44.38,1.06,5.64,2.08,11.06,3.11,16.48,0,.07,0,.16.06.2,2.26,2,4.3,4.39,6.88,5.83,1.49.84,3.84.21,5.8.13,2.84-.12,5.68-.51,8.51-.45,2.38,0,4.08,3.42,3,5.6-.36.75-.69,1.52-1.07,2.35a14.38,14.38,0,0,1,2.62.61c2.09.94,3.42,2.23,3,4.93-.66,4-.76,8,1.84,11.51a1.33,1.33,0,0,1,.29,1c-.91,2.56.47,4.85.8,7.25a9,9,0,0,1-2.16,7c-1.24-1.21-2.46-2.28-3.54-3.47-2.1-2.31-2-3.05-.1-5.45a2.33,2.33,0,0,0,.18-2.16c-1-1.44-1.14-2.71,0-4.11a1.14,1.14,0,0,0,.28-.79c-.73-3.39-1-7-3.71-9.59-.08-.08-.26,0-.75-.1-.28,2.37-.67,4.73-.79,7.11a4.07,4.07,0,0,1-1.91,3.5c-2,1.43-3.65,3.32-5.52,4.94-1.49,1.29-3.09,2.46-4.63,3.68l-.82-.32q.45-3.82.9-7.64a.27.27,0,0,1,.1-.19c2.16-1.28,4.21-2.87,6.53-3.71,1.17-.43,1.69-.69,1.7-1.83,0-1.7,0-3.41,0-5.78-1.65,1-2.84,1.62-4,2.35-2.74,1.77-5.6,3.39-8.14,5.41-2.76,2.2-5.9,3.75-7.89,7.16-5.37,9.21-12.63,16.71-22.53,21.26l-3,1.37c.34,1.81.69,3.6,1,5.39a14.67,14.67,0,0,1-2.85,12.13c-3,3.8-6.28,7.39-9.48,11-3.55,4-3.48,7.69.63,11.19,4.44,3.79,9.17,7.23,13.56,11.06,1.93,1.68,3.35,4,5.28,6.3-3.64,1-6.78,1.29-9.91.37-1.4-.41-2.33-1.42-1.35-3.11.75-1.29.21-2.09-1.16-2.24s-1.81-1-2.34-2.11a14.2,14.2,0,0,0-2.61-3.83,74.55,74.55,0,0,0-6.9-6.4,18.77,18.77,0,0,0-5.2-2.78c-2.85-1-3.44-2-2.18-4.76s2.61-5.23,3.75-7.92a22.33,22.33,0,0,0,.9-4.06c-.58,0-.79,0-.81,0-2.33,5-6.31,8.45-10.78,11.58a51.51,51.51,0,0,0-8.38,7.57,7.17,7.17,0,0,0-1.35,4.74A19.86,19.86,0,0,0,58.93,215c.26.33.69.79.62,1.09-.63,2.73,1.82,3.45,3.1,4.93.46.54,1.17,1.4,1,1.82a3.18,3.18,0,0,1-1.79,1.84c-2.66.63-5-.4-7.27-1.8-.11-.07-.29-.22-.27-.31.54-2.64-1.34-4.75-1.58-7.2-.36-3.61-.39-7.27-.86-10.87a24.75,24.75,0,0,0-1.72-5,34,34,0,0,1-1.22-3.39c-.37-1.5.17-2.51,1.72-3.19,5.07-2.21,7.06-6.69,5.26-11.9a43.08,43.08,0,0,0-2.84-6.21,24.21,24.21,0,0,1-3.18-12.9,3.71,3.71,0,0,0-1.2-2.66,17.83,17.83,0,0,0-4.52-2.78A7.78,7.78,0,0,0,34.41,159,37.75,37.75,0,0,0,31,164.45c-2.86,5.2-6,6.91-11.9,6.36l7-3.14-.27-.74a33.27,33.27,0,0,1-25.77,2,31.73,31.73,0,0,0,19.77-1.74c-5.63.79-10.71-1.07-15.78-3,5.88.32,11.87,3.76,17.57-.74-6.76-.7-13.52-1.12-19.45-5.29,3.06.73,5.94,1.45,8.85,2.11,5.47,1.24,10.05.33,13.42-4.79A50,50,0,0,1,31,147.92c4.39-4.39,10.64-3.86,13.13,2,1.32,3.1,3,6,6.72,7.3,2.36-5.94,5.69-11.12,11.26-14.51,3.78-2.37,5.61-3.28,8-4.87,2.07-1.36,5.52-3.11,6.33-3.77a31.55,31.55,0,0,1,4.55-2.9c6.22-3.31,8.84-9.22,11.16-15.35a2.23,2.23,0,0,0,.13-1.25,11,11,0,0,1,1.14-8.86,6.46,6.46,0,0,0,.28-2c-3.07.85-4.15,3.45-6,5.24-.53-5,4.74-7.2,5.37-11.4l-7.43,4-.37-.42a16.58,16.58,0,0,0,5.51-8.28c.42-1.39,1.78-2.5,2.46-4.15l-6.68,4.28c1.73-4.66,6.58-6.79,9-11.71l-6.47,2.28-.26-.22c1.89-1.36,3.69-2.86,5.69-4S97,77.78,97.4,75.8l-5.88,2.34-.38-.63,8.58-5.68-8.45,2.53c3-3.26,7.06-4.09,11-5.44H96.81l-.09-.32,8.2-1.91-5.05-2,.1-.45h10.22l-1.74-9.56C112.5,57.62,114.1,62.58,118.72,64.45Zm21.87,49.45c-3-.27-4.43,2.17-6.7,2.74l.16.51,6.22-.5Z" style="fill-rule:evenodd"/><rect x="233.84" y="75.32" width="6.35" height="64.45"/><rect x="256.51" y="160.12" width="57.68" height="5.59"/><path d="M238.24,170.35a5.76,5.76,0,0,0-.56,1.64,3.77,3.77,0,0,0,.44,2.89,6.17,6.17,0,0,0,.47.52c.14-1,.28-1.93.42-2.92q-.23-.66-.69-1.93Z"/><path d="M272.54,140.17s-20.77-1.68-35.48-16.69c-14.7,15-35.47,16.69-35.47,16.69a83.18,83.18,0,0,0,1.57,18.94l.21,1H161l1.44,5.55h42.27c3.71,13.29,11.65,28.52,28.57,37.08l.57.31v52.75l6.39,0,0-52.78.55-.26C275.35,185.4,272.54,140.17,272.54,140.17Z"/><path d="M240.48,168l.72,2.16c.61-.9,1.25-1.88,1.92-2.95a5.69,5.69,0,0,0-2.65.79Z"/><path d="M315.67,140a20.2,20.2,0,0,1,.61-2.71c.39-1.39.59-2.21.35-2.89a4.75,4.75,0,0,1,.78-4.27c1.8-2.44,1.78-5.3,1.2-8.84a7.36,7.36,0,0,1,3.44-7.87c0-2.1-.11-3.36-.12-3.59l-.23-3.66-3.65-.3c-.46,0-46.09-4.14-78-36.69l-3-3.09-3,3.09c-31.87,32.55-77.5,36.65-78,36.69l-3.66.3-.23,3.66c0,.23-.09,1.51-.12,3.65a7.35,7.35,0,0,1,3.34,7.8c-.58,3.54-.6,6.4,1.2,8.84a4.75,4.75,0,0,1,.78,4.27c-.24.68,0,1.5.35,2.89a19.86,19.86,0,0,1,.61,2.71,12.53,12.53,0,0,1-2.84,9.58l-.4.52a197.54,197.54,0,0,0,4.75,20.69c12.44,43.19,38.57,74.13,75.57,89.47l1.62.67,1.62-.67c37-15.34,63.13-46.28,75.57-89.47A197.41,197.41,0,0,0,319,150.22l-.47-.63A12.53,12.53,0,0,1,315.67,140Z"/><path d="M306,168.71c-11.71,40.44-34.92,68.37-69,83.06-34.07-14.69-57.28-42.63-69-83.06a197.54,197.54,0,0,1-7.53-54.82c11.73-1.62,47.94-8.65,76.52-35.79,28.58,27.14,64.79,34.16,76.52,35.79A197.55,197.55,0,0,1,306,168.71Z"/><path d="M322,120c0-.19,0-.38,0-.56A4.93,4.93,0,0,0,322,120Z"/><path d="M365.59,54.65l-1.74,9.56h10.22l.1.45-5,2,8.2,1.91-.09.32h-5.46c3.93,1.35,8,2.18,11,5.44l-8.45-2.53,8.58,5.68-.38.63-5.88-2.34c.43,2,.89,2.27,2.87,3.45s3.8,2.69,5.69,4l-.26.22-6.47-2.28c2.44,4.92,7.3,7,9,11.71l-6.68-4.28c.68,1.65,2,2.76,2.46,4.15a16.56,16.56,0,0,0,5.51,8.28l-.37.42-7.43-4c.63,4.2,5.91,6.38,5.37,11.4-1.87-1.8-3-4.39-6-5.24a6.47,6.47,0,0,0,.28,2,11,11,0,0,1,1.14,8.86,2.22,2.22,0,0,0,.13,1.25c2.32,6.13,4.93,12,11.16,15.35a31.56,31.56,0,0,1,4.54,2.9c.8.66,4.26,2.41,6.33,3.77,2.43,1.59,4.26,2.5,8,4.87,5.58,3.39,8.91,8.57,11.27,14.51,3.74-1.27,5.4-4.2,6.72-7.3,2.5-5.86,8.74-6.39,13.13-2a49.84,49.84,0,0,1,6.59,7.53c3.37,5.12,7.94,6,13.42,4.79,2.9-.66,5.79-1.38,8.85-2.11-5.93,4.17-12.69,4.59-19.45,5.29,5.7,4.51,11.69,1.06,17.57.74-5.07,1.93-10.15,3.78-15.78,3A31.73,31.73,0,0,0,474,168.89a33.27,33.27,0,0,1-25.77-2l-.27.74,7,3.14c-5.88.56-9-1.15-11.9-6.36a37.63,37.63,0,0,0-3.43-5.41,7.78,7.78,0,0,0-9.77-2.53,17.8,17.8,0,0,0-4.52,2.78,3.72,3.72,0,0,0-1.2,2.66,24.23,24.23,0,0,1-3.18,12.9,42.87,42.87,0,0,0-2.84,6.21c-1.81,5.2.19,9.68,5.26,11.9,1.55.68,2.09,1.69,1.72,3.19a33.92,33.92,0,0,1-1.22,3.39,24.82,24.82,0,0,0-1.72,5c-.47,3.6-.49,7.26-.85,10.87-.25,2.44-2.13,4.55-1.58,7.2,0,.08-.16.24-.28.31-2.23,1.4-4.6,2.43-7.27,1.8a3.19,3.19,0,0,1-1.79-1.84c-.16-.43.55-1.29,1-1.82,1.28-1.49,3.72-2.2,3.1-4.93-.07-.3.35-.76.62-1.09a19.87,19.87,0,0,0,4.07-11.73,7.18,7.18,0,0,0-1.35-4.74,51.54,51.54,0,0,0-8.38-7.57c-4.47-3.12-8.45-6.53-10.78-11.58,0-.05-.24,0-.81,0a22.5,22.5,0,0,0,.9,4.06c1.13,2.69,2.55,5.26,3.74,7.92s.66,3.72-2.18,4.76a18.77,18.77,0,0,0-5.2,2.78,74.66,74.66,0,0,0-6.91,6.4,14.22,14.22,0,0,0-2.61,3.83c-.53,1.12-1,2-2.34,2.11s-1.91,1-1.16,2.24c1,1.69.06,2.7-1.35,3.11-3.13.92-6.27.66-9.91-.37,1.93-2.35,3.35-4.61,5.28-6.3,4.39-3.83,9.13-7.28,13.56-11.06,4.11-3.5,4.18-7.17.63-11.19-3.21-3.64-6.48-7.22-9.49-11A14.68,14.68,0,0,1,378,164.51c.32-1.79.67-3.58,1-5.39l-3-1.37c-9.9-4.55-17.15-12-22.52-21.26-2-3.41-5.13-5-7.89-7.16-2.54-2-5.4-3.64-8.14-5.41-1.13-.73-2.32-1.38-4-2.35,0,2.37,0,4.07,0,5.78,0,1.14.53,1.41,1.7,1.83,2.32.85,4.37,2.43,6.53,3.71a.28.28,0,0,1,.1.19q.46,3.82.9,7.64l-.82.32c-1.55-1.22-3.14-2.39-4.63-3.68-1.87-1.62-3.52-3.51-5.52-4.94a4.07,4.07,0,0,1-1.91-3.5c-.12-2.38-.52-4.74-.79-7.11-.49.06-.67,0-.75.1-2.68,2.63-3,6.19-3.71,9.59a1.14,1.14,0,0,0,.28.79c1.1,1.4.92,2.66,0,4.11a2.33,2.33,0,0,0,.18,2.16c1.91,2.39,2,3.13-.1,5.45-1.08,1.19-2.3,2.26-3.54,3.47a9,9,0,0,1-2.16-7c.33-2.4,1.7-4.69.79-7.25a1.34,1.34,0,0,1,.29-1c2.6-3.52,2.5-7.53,1.84-11.51-.44-2.7.88-4,3-4.93a14.39,14.39,0,0,1,2.62-.61c-.38-.83-.72-1.59-1.07-2.35-1-2.18.67-5.56,3-5.6,2.83-.05,5.67.34,8.51.45,2,.08,4.3.71,5.79-.13,2.57-1.45,4.62-3.84,6.88-5.83,0,0,0-.13.06-.2L354,85.06c-5.57,1.22-6.42,1.24-11.44-.38a4.09,4.09,0,0,0-4.16.71,4.85,4.85,0,0,1-2.56.69c-3.6.22-5.14-2-6.13-5.08A2.23,2.23,0,0,1,331,77.9C336.61,75,342.16,72,347.72,69c.1-.05.14-.23.23-.4L346.79,66l1.6,1.11c-.25-3.61.76-6.41,3.8-8.61l.75,6.46,2.53-1.75-.16,1.22C359.93,62.58,361.53,57.62,365.59,54.65Zm-31.83,62,6.22.5.16-.51c-2.27-.57-3.68-3-6.7-2.74C333.57,115,333.66,115.74,333.76,116.64Z" style="fill-rule:evenodd"/><path d="M200.06,204.06l1.63,1.66a6.88,6.88,0,0,0,4.76,2,3.72,3.72,0,0,0,2.61-1.41c1.87-2.22,2.21-4.56,1-6.79-1.78-3.28-7.17-4.82-11.77-4a8.85,8.85,0,0,0-3.26,6.11C197.53,201.28,198.77,202.63,200.06,204.06Zm3.81-10.56a8.82,8.82,0,0,0-4,.94H200c3.19-.46,9,.76,11,4.54,1.43,2.62,1,5.48-1.13,8a4.8,4.8,0,0,1-3.37,1.8,7.85,7.85,0,0,1-5.57-2.24l-1.73-1.75c-1.31-1.46-2.17-2.41-4.19-2.1l0,0a8.87,8.87,0,1,0,8.86-9.22Z"/><circle cx="270.29" cy="202.37" r="4.79"/><path d="M269.31,197.17a3.36,3.36,0,0,1,2.14,0,5.67,5.67,0,0,0-.42-2.93c-.67-1.73-1.19-2.67-1-4.67a9,9,0,0,0-.25,4.27A6.22,6.22,0,0,1,269.31,197.17Z"/><path d="M265.91,199.38a3.36,3.36,0,0,1,1.51-1.51,5.64,5.64,0,0,0-2.36-1.78c-1.7-.75-2.73-1.05-4-2.6a9,9,0,0,0,2.84,3.2A6.2,6.2,0,0,1,265.91,199.38Z"/><path d="M265.08,203.35a3.35,3.35,0,0,1,0-2.13,5.64,5.64,0,0,0-2.93.42c-1.74.67-2.67,1.19-4.68,1a9,9,0,0,0,4.27.25A6.2,6.2,0,0,1,265.08,203.35Z"/><path d="M267.3,206.74a3.37,3.37,0,0,1-1.51-1.51A5.65,5.65,0,0,0,264,207.6c-.76,1.7-1.05,2.73-2.6,4a9,9,0,0,0,3.2-2.84A6.18,6.18,0,0,1,267.3,206.74Z"/><path d="M271.26,207.58a3.36,3.36,0,0,1-2.13,0,5.64,5.64,0,0,0,.42,2.93c.67,1.73,1.19,2.67,1,4.68a9,9,0,0,0,.25-4.27A6.21,6.21,0,0,1,271.26,207.58Z"/><path d="M274.66,205.36a3.35,3.35,0,0,1-1.51,1.51,5.62,5.62,0,0,0,2.36,1.78c1.7.76,2.73,1.05,4,2.6a9,9,0,0,0-2.84-3.2A6.22,6.22,0,0,1,274.66,205.36Z"/><path d="M275.49,201.39a3.34,3.34,0,0,1,0,2.13,5.65,5.65,0,0,0,2.93-.41c1.73-.67,2.67-1.19,4.68-1a9,9,0,0,0-4.27-.25A6.22,6.22,0,0,1,275.49,201.39Z"/><path d="M273.27,198a3.35,3.35,0,0,1,1.51,1.51,5.64,5.64,0,0,0,1.78-2.37c.76-1.7,1.05-2.73,2.6-4A9,9,0,0,0,276,196,6.2,6.2,0,0,1,273.27,198Z"/><path d="M268.25,197.14s.43-1.6-.37-2.43c-.57-.59-1.06-.51-1.51-1.64,0,0,.15,2.08,1,2.62A3.14,3.14,0,0,1,268.25,197.14Z"/><path d="M265.14,200.11s-.83-1.44-2-1.46c-.82,0-1.11.4-2.22-.09,0,0,1.58,1.36,2.53,1.18A3.16,3.16,0,0,1,265.14,200.11Z"/><path d="M265.05,204.4s-1.6-.43-2.43.37c-.59.57-.51,1.07-1.64,1.51,0,0,2.08-.15,2.62-1A3.16,3.16,0,0,1,265.05,204.4Z"/><path d="M268,207.51s-1.44.83-1.46,2c0,.82.4,1.11-.09,2.22,0,0,1.36-1.58,1.18-2.53A3.13,3.13,0,0,1,268,207.51Z"/><path d="M272.32,207.6s-.43,1.61.37,2.43c.57.58,1.07.5,1.51,1.63,0,0-.15-2.08-1-2.62A3.15,3.15,0,0,1,272.32,207.6Z"/><path d="M275.42,204.63s.83,1.44,2,1.46c.82,0,1.11-.4,2.22.09,0,0-1.58-1.36-2.53-1.18A3.15,3.15,0,0,1,275.42,204.63Z"/><path d="M275.52,200.34s1.61.43,2.43-.37c.58-.57.5-1.07,1.63-1.51,0,0-2.08.15-2.62,1A3.16,3.16,0,0,1,275.52,200.34Z"/><path d="M272.55,197.23s1.44-.83,1.46-2c0-.82-.4-1.11.09-2.22,0,0-1.36,1.58-1.17,2.53A3.16,3.16,0,0,1,272.55,197.23Z"/></g><path d="M272.72,31.39c0,.16,0,.32-.08.48a2.81,2.81,0,0,1-.52,1.07,1.42,1.42,0,0,1-1.07.53c-.2,0-.39,0-.58.06a.37.37,0,0,0-.31.31,4,4,0,0,0-.07.54c0,.19,0,.26.24.28a1.77,1.77,0,0,1,1.52,1.46,2.4,2.4,0,0,1-.33,2,1.54,1.54,0,0,1-1.72.61,2.07,2.07,0,0,1-.52-.3c-.13-.09-.23-.21-.36-.3s-.27-.08-.34.07a7.85,7.85,0,0,0-.3.8.22.22,0,0,0,.16.29l.15.06a1.62,1.62,0,0,1,1.21,1.09,2.27,2.27,0,0,1-.39,2.57,1.46,1.46,0,0,1-2.36-.22,6.74,6.74,0,0,1-.35-.73c-.1-.22-.19-.24-.33,0a6.68,6.68,0,0,0-.62.95,15.35,15.35,0,0,1-1.83,2.69A6.09,6.09,0,0,1,262.51,47a2.61,2.61,0,0,1-.57.3.83.83,0,0,1-1.2-.75,3.13,3.13,0,0,0-.06-.4c0-.2-.19-.24-.36-.12a7.73,7.73,0,0,1-1.56.86.24.24,0,0,1-.3-.07,2.18,2.18,0,0,1,.08-3.07,1,1,0,0,1,.31-.2,1.94,1.94,0,0,1,1.26-.07.91.91,0,0,1,.69.86c0,.19,0,.39,0,.58s.12.23.24.16a1.83,1.83,0,0,0,.87-1,1,1,0,0,0-.26-1c-.21-.24-.43-.47-.66-.7a1.7,1.7,0,0,1-.21-2.38,4.26,4.26,0,0,1,.81-.86,9.24,9.24,0,0,0,2.38-3,13.48,13.48,0,0,0,1.36-3.95,6.49,6.49,0,0,0-.19-3.12,11.48,11.48,0,0,0-1.51-3.49,8,8,0,0,0-2.42-2.34,5.42,5.42,0,0,0-2-.64c-.58-.09-1.16-.19-1.75-.27-.31,0-.63-.06-1-.08a.71.71,0,0,0-.19,0c-.19,0-.25.12-.19.31s.21.66.31,1a15.11,15.11,0,0,1,.52,2.68,21.17,21.17,0,0,1,.13,2.82,14.29,14.29,0,0,1-.28,2.25c-.21,1.13-.44,2.26-.62,3.39A18.73,18.73,0,0,0,256,38a6.12,6.12,0,0,0,.44,2.34c.13.3.05.44-.26.53-.48.14-1,.24-1.44.39s-.83.3-1.25.46a.36.36,0,0,0-.25.53.68.68,0,0,1-.22.81c-.31.24-.65.46-1,.67a.61.61,0,0,0-.33.47c0,.19.06.28.25.25a1.18,1.18,0,0,0,.24-.08c.39-.15.78-.33,1.18-.44a.94.94,0,0,1,1.26.77,1.4,1.4,0,0,0,.58.92.21.21,0,0,1,.08.18s-.08.1-.14.11a.77.77,0,0,0-.49.38c-.1.17-.21.33-.32.49a1.22,1.22,0,0,1-1.39.49,1.91,1.91,0,0,1-.94-.57,1.39,1.39,0,0,0-.61-.41c-.08,0-.17-.07-.21,0a.31.31,0,0,0,0,.25c.15.24.32.47.49.7A4.18,4.18,0,0,0,254,48.65a3.92,3.92,0,0,0,3.92-.91l.39-.35c.27-.24.37-.21.53.11a3.41,3.41,0,0,1,.17.39,2.16,2.16,0,0,0,2.38,1.55,4.5,4.5,0,0,0,1.93-.54c.19-.09.37-.2.57-.28a.13.13,0,0,1,.15.21,4.41,4.41,0,0,0-.77,1.21c-.23.46-.38,1-.59,1.42-.39.85-.82,1.68-1.19,2.54-.59,1.4-1.13,2.82-1.69,4.23-.16.41-.27.5-.71.47l-3.31-.18c-.67,0-1.34,0-2-.05-.87,0-1.74-.07-2.61-.09l-2.65,0c-1.1,0-2.19-.06-3.28-.07s-2.39,0-3.59,0l-2.53,0c-.6,0-1.19,0-1.79,0s-1.31,0-2-.07l-.76,0-2.14-.11-1.52-.05L226.15,58c-1.19,0-2.38-.07-3.57,0-.52,0-1,0-1.57-.05s-1.2,0-1.8,0c-1.42,0-2.85.05-4.27.08-.31,0-.6,0-.91.06s-.59-.11-.74-.53c-.62-1.71-1.22-3.43-1.88-5.12a16.05,16.05,0,0,0-1.56-3.06c-.21-.31-.46-.6-.69-.9a.92.92,0,0,1-.08-.2c.07,0,.14-.07.2-.06a1.17,1.17,0,0,1,.38.12,3.07,3.07,0,0,0,1.86.45,5,5,0,0,0,1.18-.25,2,2,0,0,0,1.18-1.34,4.55,4.55,0,0,1,.19-.48c.09-.18.2-.19.35-.07a1.32,1.32,0,0,1,.19.18,4.64,4.64,0,0,0,2.64,1.51,3.21,3.21,0,0,0,1.43-.08,4.35,4.35,0,0,0,1.77-.75,5.13,5.13,0,0,0,1.15-1.29.29.29,0,0,0,0-.25.18.18,0,0,0-.27,0c-.19.11-.38.23-.56.36a3.42,3.42,0,0,1-.93.55,1.07,1.07,0,0,1-1.25-.36,4.66,4.66,0,0,1-.4-.63.83.83,0,0,0-.49-.44c-.19-.06-.21-.15-.05-.29a1.47,1.47,0,0,0,.53-.78c0-.05,0-.11,0-.16a.72.72,0,0,1,.78-.7,3,3,0,0,1,1.51.37l.3.15c.1,0,.2.09.28,0a.28.28,0,0,0,.08-.34.87.87,0,0,0-.24-.29,8.36,8.36,0,0,0-.73-.48,1.29,1.29,0,0,1-.51-.62.25.25,0,0,1,0-.13.52.52,0,0,0-.38-.65c-.37-.16-.74-.32-1.13-.45-.6-.21-1.22-.41-1.83-.62-.28-.09-.32-.17-.22-.44a9.85,9.85,0,0,0,.58-4.07c0-.71-.13-1.41-.2-2.12s-.13-1.22-.22-1.84-.18-.92-.26-1.38a13.13,13.13,0,0,1-.08-2.53c0-.51,0-1,.08-1.54a12.23,12.23,0,0,1,.45-2.5c.16-.6.36-1.18.54-1.76.12-.39.08-.46-.33-.42a30.8,30.8,0,0,0-3.21.42,5.93,5.93,0,0,0-3,1.63A10,10,0,0,0,208,27.62a8.6,8.6,0,0,0-.43,4,12.76,12.76,0,0,0,2,5.42,4.69,4.69,0,0,0,1.25,1.31,4.32,4.32,0,0,1,1.1,1.2,1.56,1.56,0,0,1-.26,2.13,6.4,6.4,0,0,0-.84.9,1.22,1.22,0,0,0,.7,1.85c.34.08.55-.05.56-.4a1.38,1.38,0,0,1,.49-1.1.78.78,0,0,1,.43-.18,4.57,4.57,0,0,1,.9.1,1,1,0,0,1,.63.43,2.21,2.21,0,0,1,.49,1.63,1.88,1.88,0,0,1-.25.66,6.37,6.37,0,0,1-.5.72.18.18,0,0,1-.17,0c-.4-.22-.79-.44-1.18-.68a2.71,2.71,0,0,1-.45-.39c-.17-.17-.3-.23-.45-.17a.38.38,0,0,0-.21.42,1.67,1.67,0,0,1-.34,1,.63.63,0,0,1-.7.26,2.55,2.55,0,0,1-1.34-.77,16.54,16.54,0,0,1-2.24-3,2.09,2.09,0,0,1-.33-.73,1.49,1.49,0,0,0-.24-.49c-.11-.18-.24-.35-.36-.52s-.11-.21-.26-.18-.17.15-.2.27a1.71,1.71,0,0,1-.38.81,1.42,1.42,0,0,1-2.28,0,2.16,2.16,0,0,1-.47-1,2.56,2.56,0,0,1,.51-2.15,1.21,1.21,0,0,1,1-.49l.15,0c.17,0,.24-.12.17-.28-.16-.35-.33-.69-.51-1-.06-.11-.15-.1-.23,0l0,.07a1.47,1.47,0,0,1-2.11.34,1.77,1.77,0,0,1-.75-1.21,2.38,2.38,0,0,1,.49-2.06,1.52,1.52,0,0,1,1.09-.6c.33,0,.38-.13.31-.46,0-.12-.06-.23-.08-.35a.48.48,0,0,0-.53-.44,4.4,4.4,0,0,1-.47,0,1.44,1.44,0,0,1-1.07-.74,2.48,2.48,0,0,1,.24-2.93,1.28,1.28,0,0,1,1-.47c.62,0,.53,0,.63-.54a.92.92,0,0,0-.5-1.12,1.55,1.55,0,0,1-.72-1.19,3.22,3.22,0,0,1,.16-1.63,1.52,1.52,0,0,1,2.09-.93c.54.22.54.08.77-.27l.08-.14c.17-.34.15-.48-.13-.74a2,2,0,0,1-.59-1.23,2.44,2.44,0,0,1,.67-2.18,1.47,1.47,0,0,1,2.07.08c.14.17.25.36.39.54s.28.24.48.07.43-.4.64-.6a.25.25,0,0,0,0-.33l-.27-.46a2.38,2.38,0,0,1,.17-2.72,1.37,1.37,0,0,1,2.09-.24,2.05,2.05,0,0,1,.78,1.55c0,.15,0,.3,0,.45s.12.25.3.2l.61-.15.21-.08c.21-.11.24-.19.13-.4a2.48,2.48,0,0,1-.28-1.35,2.74,2.74,0,0,1,.46-1.4,1.53,1.53,0,0,1,2.53.1,2.51,2.51,0,0,1,.25,2.1c0,.11-.07.23-.1.34a.19.19,0,0,0,.17.26l.08,0,1.36.09a1.45,1.45,0,0,0,.31,0c.13,0,.16-.1.12-.22a4.36,4.36,0,0,1-.21-.69,3.3,3.3,0,0,1,.13-1.47,1.81,1.81,0,0,1,1.62-1.1,1.63,1.63,0,0,1,1.27.93,2.56,2.56,0,0,1-.09,2.53l-.2.37a.22.22,0,0,0,.09.31,1.28,1.28,0,0,0,1.49.13,11.41,11.41,0,0,1,3.56-1.28,17.43,17.43,0,0,1,3-.34c.49,0,1,0,1.48,0s1.05.12,1.58.18c.25,0,.49.06.74.07a.44.44,0,0,0,.28-.1,1.34,1.34,0,0,1,.78-.32l.18,0c.22,0,.3-.13.3-.35,0-.41,0-.81,0-1.22a5.6,5.6,0,0,1,.44-2.16A5.65,5.65,0,0,1,235,9.57a2.72,2.72,0,0,1,.62-.32.25.25,0,0,0,.17-.27c0-.85,0-1.71,0-2.58h-2.63V3.25h2.62V0h2.45V3.24h2.6V6.4H238.2c0,.07,0,.12,0,.17,0,.83,0,1.67,0,2.5a.45.45,0,0,0,.25.44,3.87,3.87,0,0,1,1.65,1.86,5.65,5.65,0,0,1,.51,3.1c0,.19,0,.38,0,.56a.43.43,0,0,0,.44.5,2,2,0,0,1,.57.13,2.42,2.42,0,0,0,1.1.13c.34,0,.68,0,1,0,.91,0,1.82,0,2.73,0a20.07,20.07,0,0,1,2.35.37,11.66,11.66,0,0,1,3.82,1.52.64.64,0,0,0,.59.06l.74-.25c.25-.08.32-.22.21-.46a2.68,2.68,0,0,1-.29-1.33,2.87,2.87,0,0,1,.28-1.12,1.54,1.54,0,0,1,2.66-.24,2.07,2.07,0,0,1,.39,1.52c0,.25-.07.5-.08.76s.08.31.29.31.61,0,.91,0,.27-.15.23-.42a9.06,9.06,0,0,1-.09-1.13,1.8,1.8,0,0,1,1.23-1.73,1.39,1.39,0,0,1,1.74.75,2.8,2.8,0,0,1,.11,2.27c0,.12-.09.24-.12.37a.26.26,0,0,0,.18.36l.8.25c.18.05.25,0,.28-.19a3.54,3.54,0,0,1,.25-1.15,2.12,2.12,0,0,1,.72-.9,1.42,1.42,0,0,1,2,.54,2.52,2.52,0,0,1-.18,2.9l-.11.16c-.1.16-.07.24.07.36l.62.55c.25.22.39.2.57-.09a3.31,3.31,0,0,1,.38-.53,1.26,1.26,0,0,1,1.44-.33,1.64,1.64,0,0,1,1,.89,2.55,2.55,0,0,1-.07,2.38,2.28,2.28,0,0,1-.47.52c-.16.15-.2.23-.11.43s.21.43.32.64.17.22.38.15.35-.12.53-.16a1.42,1.42,0,0,1,1.63.8,2.75,2.75,0,0,1,0,2.5,1.6,1.6,0,0,1-.78.75c-.29.13-.33.22-.28.54,0,.16,0,.32.06.48,0,.33.1.4.43.43a1.46,1.46,0,0,1,1,.38,2.51,2.51,0,0,1,.65,1.25c0,.13,0,.27.07.4ZM250.62,26h.05c-.07-.5-.1-1-.2-1.51a5,5,0,0,0-1.95-2.9,11.91,11.91,0,0,0-4.88-2.25c-.68-.15-1.39-.21-2.08-.3a.46.46,0,0,0-.56.43c0,.12,0,.24-.05.35-.17,1-.38,2-.5,3.05a28.15,28.15,0,0,0-.22,3c0,1.45,0,2.9.06,4.35q0,.92.11,1.83c.09.9.17,1.81.32,2.7s.32,1.63.52,2.44a4.83,4.83,0,0,0,.64,1.51.38.38,0,0,1-.08.55l-.72.45-.7.41-2,1.17c-.26.16-.29.23-.2.52a.65.65,0,0,1,0,.58,3.42,3.42,0,0,1-.47.53c-.21.19-.43.36-.64.55a.58.58,0,0,0-.15.23A.34.34,0,0,0,237,44a.27.27,0,0,0,.33-.06l.09-.09a2.39,2.39,0,0,1,.54-.37,4.34,4.34,0,0,1,1-.22.7.7,0,0,1,.83.6c0,.13.06.26.09.39a.48.48,0,0,0,.36.4s.06,0,.08,0a.8.8,0,0,1,.16.26s-.09.14-.15.17a1,1,0,0,0-.46.6,2.4,2.4,0,0,1-.31.65,1,1,0,0,1-1,.42,2.22,2.22,0,0,1-1.12-.6.76.76,0,0,0-.61-.28l-.2,0a.92.92,0,0,0,.06.2,4.1,4.1,0,0,0,1,1,3.41,3.41,0,0,0,3.57.58,5.38,5.38,0,0,0,1.85-1.28c.25-.24.33-.23.55,0a5.5,5.5,0,0,0,.74.79,4.58,4.58,0,0,0,4.24.66,4.35,4.35,0,0,0,2.13-1.42.16.16,0,0,0-.05-.29.55.55,0,0,0-.5,0c-.4.18-.81.37-1.22.52a1,1,0,0,1-1.05-.27,1.58,1.58,0,0,1-.43-1,.74.74,0,0,0-.28-.54.23.23,0,0,1,.07-.43.72.72,0,0,0,.37-.34c.1-.19.2-.37.32-.55a.77.77,0,0,1,.78-.35,2.54,2.54,0,0,1,1.59.86s.14.1.17.09a.28.28,0,0,0,.13-.18.48.48,0,0,0-.2-.5c-.36-.24-.71-.49-1.06-.75-1.24-.92-2.4-1.94-3.54-3a.47.47,0,0,1-.07-.68c.55-.92,1.12-1.82,1.62-2.77A31.52,31.52,0,0,0,250,30.13,14.36,14.36,0,0,0,250.62,26Zm-17.13,0h0c0-.47,0-.93,0-1.39-.09-1-.21-1.95-.35-2.91-.11-.74-.26-1.48-.4-2.21a.47.47,0,0,0-.55-.43l-1.23.06a11.75,11.75,0,0,0-3.46.73,10.08,10.08,0,0,0-3.27,1.85,4.91,4.91,0,0,0-1.64,2.8,9.25,9.25,0,0,0-.06,2.84,20,20,0,0,0,.9,3.92,34.49,34.49,0,0,0,2.24,5.5c.39.72.79,1.43,1.19,2.14.16.28.15.38-.08.61s-.36.36-.55.53c-1,.89-2.12,1.72-3.24,2.5a2.17,2.17,0,0,0-.27.25c-.14.14-.26.28-.41.41a.3.3,0,0,0,0,.46c.11.13.21.13.37,0a2.81,2.81,0,0,1,1.22-.68,1,1,0,0,1,1.11.36,5.84,5.84,0,0,1,.35.55,1,1,0,0,0,.47.43s.11.07.11.09a.24.24,0,0,1-.1.14.7.7,0,0,0-.35.45c0,.13-.07.27-.1.41a1.14,1.14,0,0,1-1.59.9c-.39-.13-.77-.3-1.16-.45a.62.62,0,0,0-.28-.07.37.37,0,0,0-.23.15s0,.15.05.19c.2.21.4.42.62.61a4.37,4.37,0,0,0,3.74,1,4,4,0,0,0,2.72-1.8c.14-.2.14-.29,0-.45s-.6-.56-.89-.85a2,2,0,0,1-.38-.5,1.89,1.89,0,0,1,.32-1.91,1.25,1.25,0,0,1,1.55-.2,2.09,2.09,0,0,1,.9,1.91,1.75,1.75,0,0,1-.7,1.27c-.4.35-.42.52-.08.94l.06.08a5.67,5.67,0,0,0,1.39,1.16,3,3,0,0,0,2,.47,4.51,4.51,0,0,0,2.92-1.75s.06-.16,0-.18a.28.28,0,0,0-.21-.06,1.84,1.84,0,0,0-.37.16c-.34.18-.68.35-1,.54a1.1,1.1,0,0,1-1.47-.37,3.77,3.77,0,0,1-.34-.76.7.7,0,0,0-.38-.49c-.17-.07-.18-.18,0-.28a1.31,1.31,0,0,0,.63-.95.56.56,0,0,1,.49-.48,2,2,0,0,1,1.43.26l.56.39c.15.11.28,0,.31-.14a.48.48,0,0,0-.22-.49,3.45,3.45,0,0,1-.76-.75.86.86,0,0,1-.26-.72.59.59,0,0,0-.35-.66c-1.13-.69-2.25-1.39-3.38-2.1-.25-.15-.25-.25-.1-.49a9,9,0,0,0,.57-.94,14.39,14.39,0,0,0,1.07-3.44,42.45,42.45,0,0,0,.82-5.31C233.36,27.9,233.42,26.94,233.49,26Zm11.05,29.58a1.75,1.75,0,0,0,1.1-.38,1.67,1.67,0,0,0-.2-2.87,2,2,0,0,0-2.7,1c-.08.26-.17.29-.41.17s-.41-.21-.62-.29l-2.2-.87-2.67-1.09a1.51,1.51,0,0,0-1.33,0,3.16,3.16,0,0,1-.46.19l-4.79,1.61a1.63,1.63,0,0,1-.51,0,.22.22,0,0,1-.16-.13,2,2,0,0,0-1.08-1.13,1.8,1.8,0,0,0-1.79.18,1.37,1.37,0,0,0-.79,1.1,2.82,2.82,0,0,0,0,.62,1.23,1.23,0,0,0,.16.48,2.28,2.28,0,0,0,1,.82,1.58,1.58,0,0,0,1.53-.11,2.06,2.06,0,0,0,.89-1.14c.1-.28.21-.31.47-.16s.33.19.5.27l2.24,1,2.87,1.31a1,1,0,0,0,.79,0l4.19-1.73c.5-.21,1-.44,1.48-.66.34-.15.46-.1.59.25l0,.08A1.93,1.93,0,0,0,244.54,55.57Zm9.09,1.4,0,0a1.62,1.62,0,0,0,.3,0c.23-.09.45-.2.69-.28l1.79-.57,4.14-1.33c.07,0,.16-.09.16-.14s-.08-.13-.13-.18a.56.56,0,0,0-.16-.07l-1.58-.67-4.44-1.88a.91.91,0,0,0-.48-.05c-.31.05-.61.15-.91.23L248.67,53c-.55.14-1.09.3-1.64.45-.07,0-.16.07-.17.11a.36.36,0,0,0,.07.23.47.47,0,0,0,.18.11l5.8,2.78A6.74,6.74,0,0,0,253.63,57Zm-34.47-.62a5.74,5.74,0,0,0,.6-.18l4.62-2,1.08-.49c.11-.05.21-.13.18-.28s-.13-.16-.24-.18a3.34,3.34,0,0,1-.36-.08l-2.58-.82c-1-.33-2-.68-3-1a.81.81,0,0,0-.49,0L214.48,53c-.65.24-1.32.45-2,.68,0,0-.12.09-.11.13a.22.22,0,0,0,.1.16,3,3,0,0,0,.37.15l5.7,2.08C218.76,56.25,219,56.29,219.16,56.35Zm17.5-30.43a1.15,1.15,0,0,0-1.07.77,2.12,2.12,0,0,0-.1,1.2,1.48,1.48,0,0,0,.87,1.11.13.13,0,0,1,0,.23c-.06.05-.14.08-.2.13a3.39,3.39,0,0,0-.56.53,1.81,1.81,0,0,0,.47,2.35.8.8,0,0,0,.6.14,1.37,1.37,0,0,0,1.07-1.14,4.2,4.2,0,0,0,0-.58,1.49,1.49,0,0,0-.6-1.25c-.38-.28-.38-.29,0-.54a1.25,1.25,0,0,0,.58-.79,2.67,2.67,0,0,0,0-1.2A1.17,1.17,0,0,0,236.66,25.92Zm1.22,8.37a1.83,1.83,0,0,0-.25-.93,1.06,1.06,0,0,0-1-.6,1.13,1.13,0,0,0-1,.74,2,2,0,0,0-.12,1.11,1.45,1.45,0,0,0,.84,1.22.34.34,0,0,1,.14.1c.09.11,0,.2-.09.24a1.49,1.49,0,0,0-1,.76,1.78,1.78,0,0,0,0,1.46,1.63,1.63,0,0,0,.68.81.93.93,0,0,0,1.09-.22,2,2,0,0,0,.47-.95,1.56,1.56,0,0,0-.9-1.86c-.06,0-.1-.09-.15-.14a.68.68,0,0,1,.17-.13,1.29,1.29,0,0,0,.66-.4A2.31,2.31,0,0,0,237.88,34.29Zm-18.81,4.32a2,2,0,0,0,1.11,1.89.68.68,0,0,0,.56.1,2.19,2.19,0,0,0,1.17-3.46,1.4,1.4,0,0,0-1.4-.61,1.58,1.58,0,0,0-.93.55A2.31,2.31,0,0,0,219.06,38.61Zm34.36.57a2.4,2.4,0,0,0-.2-1.11,1.52,1.52,0,0,0-2.85-.07,2.18,2.18,0,0,0-.21,1.26,2.51,2.51,0,0,0,.77,1.51.69.69,0,0,0,.37.15,4.8,4.8,0,0,0,.64,0c.16,0,.36,0,.48,0A1.8,1.8,0,0,0,253.42,39.18ZM219.92,27a1.89,1.89,0,0,0-.38-1.24,1.28,1.28,0,0,0-.89-.57,1.14,1.14,0,0,0-1,.5,1.91,1.91,0,0,0-.42,1.22,1.62,1.62,0,0,0,.66,1.45,1,1,0,0,0,1.23,0A1.79,1.79,0,0,0,219.92,27Zm33,.42a1.92,1.92,0,0,0,.54,1.34,1.09,1.09,0,0,0,.66.36,1.25,1.25,0,0,0,1.32-.81,3.65,3.65,0,0,0,.14-.79,1.64,1.64,0,0,0-.52-1.44A1,1,0,0,0,253.6,26,1.87,1.87,0,0,0,252.92,27.38Zm0-6.15A1.67,1.67,0,0,0,252.4,20a1.05,1.05,0,0,0-1.58.06,2.89,2.89,0,0,0-.22.28,1.81,1.81,0,0,0,.62,2.62.71.71,0,0,0,.68.06A1.86,1.86,0,0,0,253,21.23ZM222.75,21a2.19,2.19,0,0,0-.48-1.33,1.06,1.06,0,0,0-1.77.08,2,2,0,0,0-.33,1.68,1.55,1.55,0,0,0,.84,1.1.86.86,0,0,0,.88,0A1.81,1.81,0,0,0,222.75,21ZM219.59,36a1.32,1.32,0,0,0,1.09-.61,2,2,0,0,0,.05-2,1.2,1.2,0,0,0-2.08,0,2,2,0,0,0,0,2.17A1,1,0,0,0,219.59,36Zm.7-5.34a1.89,1.89,0,0,0-.7-1.46A.68.68,0,0,0,219,29a1.66,1.66,0,0,0-1,.63,1.83,1.83,0,0,0,.57,2.61,1,1,0,0,0,1.07-.1A2,2,0,0,0,220.28,30.67Zm34,4.11a1.13,1.13,0,0,0-.27-.86c-.09-.12-.19-.24-.29-.35a1,1,0,0,0-1.33-.14,1.85,1.85,0,0,0-.3,2.66,1.06,1.06,0,0,0,1,.46,1.39,1.39,0,0,0,.81-.48A1.83,1.83,0,0,0,254.3,34.78Zm.78-3.74a1.76,1.76,0,0,0-.68-1.22.91.91,0,0,0-1.22,0,1.68,1.68,0,0,0-.7,1.74,1.64,1.64,0,0,0,1,1.35.57.57,0,0,0,.32,0A1.79,1.79,0,0,0,255.08,31Zm-36.93-7.56a1.83,1.83,0,0,0,.38,1.14,1.1,1.1,0,0,0,1.67.13,1.73,1.73,0,0,0-.13-2.7.9.9,0,0,0-.94-.13A1.69,1.69,0,0,0,218.16,23.48Zm36.63.55c0-.07,0-.14,0-.21a1.6,1.6,0,0,0-.68-1.27.85.85,0,0,0-1-.12,1.7,1.7,0,0,0-.83,1.16,2.58,2.58,0,0,0,.06,1,1.37,1.37,0,0,0,1,1,.74.74,0,0,0,.41,0A1.58,1.58,0,0,0,254.79,24ZM237.93,24a2,2,0,0,0-.32-1.11,1,1,0,0,0-1.06-.47,1.48,1.48,0,0,0-.9.81,1.78,1.78,0,0,0,.46,2.13.92.92,0,0,0,1.11,0A1.75,1.75,0,0,0,237.93,24Zm0-3.38a2.52,2.52,0,0,0-.26-1.26.75.75,0,0,0-.26-.28,1.16,1.16,0,0,0-1.42.15,1.75,1.75,0,0,0,.29,2.69.71.71,0,0,0,.82,0A1.57,1.57,0,0,0,238,20.58ZM246,18a1.13,1.13,0,0,0,.54,1.1.6.6,0,0,0,.53.13,1.3,1.3,0,0,0,1-1.12,1.16,1.16,0,0,0-.49-1.21.83.83,0,0,0-1.25.13A1.15,1.15,0,0,0,246,18Zm-20.9-.5a1.5,1.5,0,0,0,.82,1.39.33.33,0,0,0,.14,0,1,1,0,0,0,.87-.46,1.39,1.39,0,0,0-.15-1.8.83.83,0,0,0-1-.2A1.15,1.15,0,0,0,225.08,17.54Zm25.27,1.82a3,3,0,0,0-.06-.4,1,1,0,0,0-.72-.8.89.89,0,0,0-1,.6,1.65,1.65,0,0,0,.07,1.45.9.9,0,0,0,1.45.07A1.84,1.84,0,0,0,250.35,19.36ZM224.67,19a1.3,1.3,0,0,0-.33-1,.8.8,0,0,0-1.19,0,1.42,1.42,0,0,0-.4,1,1.17,1.17,0,0,0,.53,1,.79.79,0,0,0,1.11-.18A1.42,1.42,0,0,0,224.67,19Zm20.8-1.55h0a1.93,1.93,0,0,0,0-.24.8.8,0,0,0-.57-.65.67.67,0,0,0-.74.23A1.2,1.2,0,0,0,244,18a.73.73,0,0,0,.68.42.69.69,0,0,0,.65-.46A4.55,4.55,0,0,0,245.47,17.43Zm-17.77-.23A1.27,1.27,0,0,0,228,18a.56.56,0,0,0,.87.08,1.22,1.22,0,0,0,.39-1,.77.77,0,0,0-.57-.75.72.72,0,0,0-.82.34A3.81,3.81,0,0,0,227.71,17.2Zm3.63.26a4.77,4.77,0,0,0-.16-.52.46.46,0,0,0-.41-.29.7.7,0,0,0-.7.44,1,1,0,0,0,.29,1.08.48.48,0,0,0,.44.1A.89.89,0,0,0,231.33,17.47Zm10.47.25a2.2,2.2,0,0,0,.12.38.56.56,0,0,0,.86.21.84.84,0,0,0-.07-1.43.42.42,0,0,0-.51,0A1,1,0,0,0,241.81,17.72Z" style="fill:#fff;fill-rule:evenodd"/><path d="M63.65,281c3-9.11,6.09-13.55,11.45-19.2-7.15-6.36-15.65-9.82-30-13.6,54.12-27.42,88.71-29.52,92-20.57,3.87,10.57-10.07,9.18-19.48,11.36-6.51,1.71-24.92,3.86-26.25,13.48-.5,10.68.31,22.34.31,22.34S79.58,274.77,63.65,281Z" style="fill:#fff;fill-rule:evenodd"/><path d="M96.27,251.41c0-6,19.52-9.13,35.22-12.45,4.48-.95,7.79-1.88,9.43-7.29,0,4.84,0,25.38-3.87,33.6C119.7,260.43,96.27,264.05,96.27,251.41Z" style="fill:#fff;fill-rule:evenodd"/><path d="M410.47,281c-3-9.11-6.09-13.55-11.46-19.2,7.15-6.36,15.65-9.82,30-13.6-54.12-27.42-88.72-29.52-92-20.57-3.87,10.57,10.07,9.18,19.48,11.36,6.51,1.71,24.92,3.86,26.25,13.48.5,10.68-.31,22.34-.31,22.34S394.54,274.77,410.47,281Z" style="fill:#fff;fill-rule:evenodd"/><path d="M377.85,251.41c0-6-19.52-9.13-35.22-12.45-4.48-.95-7.79-1.88-9.43-7.29,0,4.84,0,25.38,3.87,33.6C354.42,260.43,377.85,264.05,377.85,251.41Z" style="fill:#fff;fill-rule:evenodd"/><path d="M310.7,287.86c-2-.87-4.78-.6-6.84,0a13,13,0,0,0-1.9.7c0,.39,1.56,6.06,1.87,7.14l.27,1c.38,1.32,1.76,5.92,2.1,6.78a6,6,0,0,0,2.53-.24c4.22-1.2,7.48-5.1,6-10.33A7.27,7.27,0,0,0,310.7,287.86Z" style="fill:#fff;fill-rule:evenodd"/><path d="M259.17,299.36c-.28,2.36-.93,7-1,7.85l4.76-.79c-.81-1.56-3.07-5.76-3.72-7.07Z" style="fill:#fff;fill-rule:evenodd"/><path d="M288.36,293.38c-.07,2.38-.31,7-.3,7.91l4.67-1.21c-.94-1.48-3.57-5.46-4.33-6.71Z" style="fill:#fff;fill-rule:evenodd"/><path d="M375,282.15c.6-8.87,5.14-14.59,5.14-27.44-1.42,2.63-3,4.63-6.28,5.73-17.22,5.81-30.25,3.39-45.93,8.86C297,280.09,268.53,289.87,237.05,290c-29.25.12-57-7.44-85.24-17.17-20.9-7.2-51.43-7.43-55.55-13.65,2.91,10.15,4.44,21.8,4.34,24.87-.29,8.64-3.38,7.08-3.38,15.66,46.67,5.59,94.17,29.31,139.82,28.93s84.79-22.09,140.78-27.27C378.67,289.55,374.46,290.61,375,282.15Zm-245.08-4c-.46,0-1.7,0-2.37,0-.19.49-1,5.68-1.09,6.37l-.25,1.77c-.43,2.93-1,7.11-1,8,.44.17,1.79.6,2.24.69l0,.55c-.43-.11-2.74-.5-3.81-.65s-3.12-.4-3.9-.46l.19-.52c.34,0,1.88,0,2.3,0,.26-.84.73-4,1.12-6.72l.21-1.47c-1.07-.13-9.19-.82-9.52-.79l-.13.88c-.38,2.58-.75,5.82-.8,6.77a17.35,17.35,0,0,0,2.15.67l0,.55c-.47-.12-2.71-.5-3.69-.64-1.18-.17-3.33-.43-4-.48l.21-.51a22,22,0,0,0,2.41,0c.26-1.17.9-5.42,1.18-7.34l.34-2.37c.12-.81.78-5.56.82-6.41-.39-.16-1.77-.57-2.34-.7l0-.54c.38.1,2.53.47,4,.68s3.35.43,3.72.44l-.19.51a18.29,18.29,0,0,0-2.26,0c-.19.67-.72,3.64-1,5.81l-.18,1.24c.57.08,8.51,1.34,9.44,1.29l.17-1.16c.29-2,.76-5.2.71-5.85a19.33,19.33,0,0,0-2.2-.68l0-.55c.38.11,2.49.46,3.9.67s3.39.44,3.81.45Zm8,19.55-.09.53c-.45-.17-2.44-.75-4-1.14-.8-.21-2.43-.59-3.07-.7l.25-.49a16.57,16.57,0,0,0,2,.17c.19-.35.92-3.06,1.33-4.64l.21-.79A16.73,16.73,0,0,0,135,289a73,73,0,0,0-3.15-10.09,10.62,10.62,0,0,0-1.46-.75l0-.54c.36.15,1.82.58,3.84,1.11,1.27.33,2.77.67,3.09.71l-.25.49c-.42,0-1.46-.15-2-.16.64,2.91,2,7.11,2.3,8.6.54-.62,5.47-5.48,5.81-6.47-.43-.24-1.37-.68-1.64-.8l.07-.54c.32.14,1.55.51,2.77.83,1,.27,2.19.52,2.71.61l-.2.5c-.35,0-1.1-.07-1.6-.05s-7,6.05-7.6,7.06a14.36,14.36,0,0,0-.55,1.73l-.25.94c-.17.67-1,4-1.09,4.62C136.15,296.91,137.56,297.5,138,297.68Zm15.37-9.21-.46-.36c.19-.85.27-1.46.33-1.91a3.41,3.41,0,0,0-2.49-2.9,2.58,2.58,0,0,0-3.29,1.89c-.36,1.62,1,2.83,2.41,4.4s3.15,3.52,2.45,6.66a5.32,5.32,0,0,1-6.72,4.21,7.44,7.44,0,0,1-3-1.31c-.22.45-.71,1.6-1.07,2.48l-.55,0c.12-.34,1-3,1.26-4,.14-.65.87-3.31.94-3.92l.48.26a20.42,20.42,0,0,0-.33,2.23,4,4,0,0,0,2.88,3.49,3.16,3.16,0,0,0,3.88-2.43c.45-2-.74-3.33-2-4.7-1.85-2.08-3.28-3.86-2.66-6.68a4.42,4.42,0,0,1,5.59-3.36,11.87,11.87,0,0,1,2.93,1.12c.29-.56.57-1.28.85-1.93l.53,0A56.56,56.56,0,0,0,153.34,288.47Zm28.34,4.24c-.15.33-1.31,5.12-1.64,6.59l-.11.5a20.84,20.84,0,0,0,4.73.64,6.84,6.84,0,0,0,.47-1l.48.06c-.17.43-1.34,3.76-1.63,4.53l-.38-.29c.14-.52.31-1.16.42-1.66a11.72,11.72,0,0,0-4.25-1.53l-.11.5c-.34,1.52-1.47,7-1.56,7.71,2.24.5,4.4.77,5.57.35.44-.82.73-1.56,1-2.08l.55,0c-.32.69-1.66,4.36-2,5.59l-.45-.21c.15-.67.25-1.12.32-1.52-.62-.27-5.58-1.48-7-1.8-.76-.17-2.55-.51-3.43-.66l.23-.5a16.66,16.66,0,0,0,2.39.17c.19-.43,1.29-5,1.9-7.74l.26-1.15c.5-2.24,1.32-6.22,1.4-7-.4-.19-1.73-.67-2.25-.87l0-.37c-.67,1.65-1.55,3.88-1.72,4.35l-.47-.29c.32-1,.63-2,.75-2.52-.42-.65-3.34-2-5.49-2.65-.25.64-1.3,4.22-1.8,6l-.31,1.1c-.6,2.16-1.72,6.33-2.21,8.31.4.19,2.35,1,2.76,1.14l-.06.54c-.52-.2-3.09-1-4.31-1.31-1-.28-3.66-1-4.32-1.1l.26-.49c.52.09,2.38.37,2.93.45.6-1.9,1.83-6.11,2.43-8.25l.31-1.11c.51-1.82,1.48-5.47,1.58-6-3.54-1-5.31-.82-6-.57a20.36,20.36,0,0,0-1.09,2.19h-.55c.42-1.15,1.55-4.15,2.07-6.1l.48.24c-.07.33-.24,1.1-.31,1.64.33.17,4.09,1.41,7.08,2.24,3.21.9,7.08,1.8,7.46,1.82.17-.27.52-1,.74-1.44l.58.06c-.1.18-.37.82-.7,1.64l1.95.51c.74.16,1.47.35,2,.46.72.16,6,1.34,6.63,1.3a11.1,11.1,0,0,0,.44-1.13h.54c-.23.5-1.39,4.29-1.6,5.06l-.45-.29c0-.17.31-1.29.4-1.79C186.25,294.06,182.87,293,181.68,292.7Zm43.92,6.75a45.55,45.55,0,0,0-.95,5.35c-.18,1.19-1.37,11.84-1.61,12.85-.62-.77-6.18-9.58-6.64-10.3-.29-.41-4.07-6.72-4.74-7.76-.12.5-1.11,13.87-.89,14.81a24,24,0,0,0,2.46.59l0,.54c-.41-.09-2.78-.37-3.38-.42s-2.45-.18-3.12-.19l.12-.53a13.09,13.09,0,0,0,1.93-.18c.49-1,2.09-15.26,2.17-16.1a18.08,18.08,0,0,0-2.49-.54v-.15l-.15.4c-.3,0-1.15,0-1.78,0a46,46,0,0,0-1.41,5.24c-.28,1.17-2.41,11.68-2.72,12.66-.55-.83-5.31-10.09-5.71-10.84-.25-.43-3.47-7-4-8.14-.16.49-2.31,13.72-2.18,14.67a23.16,23.16,0,0,0,2.4.81l0,.54c-.4-.13-2.74-.61-3.32-.72s-2.42-.4-3.09-.47l.17-.51a13.22,13.22,0,0,0,1.94,0c.58-1,3.42-15,3.57-15.85a18.48,18.48,0,0,0-2.43-.76v-.54c1.27.18,3.4.55,5.18.77.34.94,3.72,8.11,4,8.63.46.81,3.16,6.32,3.76,7.13.51-2.79,2.11-11.6,1.9-13-.43-.18-1.59-.6-2.22-.77l0-.54c.42.13,2.85.63,3.35.72s2.27.37,2.81.42l0-.28c1.29.07,3.44.25,5.23.32.42.91,4.41,7.75,4.76,8.24.53.77,3.7,6,4.37,6.77.27-2.82,1.09-11.74.76-13.11a22.92,22.92,0,0,0-2.28-.58l-.06-.54c.43.09,2.9.38,3.4.42s2.41.18,2.89.17l-.14.53C227.07,299.28,226.22,299.41,225.6,299.45Zm9.78.44c-.46,0-1.59.24-2.41.34-.1.51-.14,3.47-.16,6.61v1.58c0,3.32,0,7.58.06,8.09a23.67,23.67,0,0,0,2.41.37l.11.54c-.51-.06-2.89-.13-4.32-.13-.78,0-2.9,0-3.59.08l.1-.53c.39,0,2-.24,2.44-.34.1-1.07.16-5.79.18-8.29v-1.51c0-.84,0-5.62-.07-6.48-.46-.11-2-.32-2.41-.38l-.11-.54c.44.05,2.55.12,4.36.13,1.17,0,3.15,0,3.54-.07Zm6.56,17.47a7.56,7.56,0,0,1-3.18-.59c-.11.49-.32,1.71-.47,2.66l-.53.16c0-.36.32-3.2.31-4.19,0-.66.09-3.42,0-4l.53.14a20.06,20.06,0,0,0,.19,2.24,4,4,0,0,0,3.6,2.73,3.16,3.16,0,0,0,3.22-3.26c0-2.07-1.49-3.07-3-4.12-2.28-1.6-4.09-3-4.13-5.89a4.42,4.42,0,0,1,4.67-4.56,11.7,11.7,0,0,1,3.11.42c.15-.61.26-1.38.38-2.07l.53-.09a57.24,57.24,0,0,0-.45,7l-.53-.25a18.51,18.51,0,0,0-.12-1.94,3.41,3.41,0,0,0-3.09-2.25,2.58,2.58,0,0,0-2.77,2.59c0,1.66,1.6,2.53,3.36,3.73,1.93,1.3,3.88,2.7,3.92,5.92A5.33,5.33,0,0,1,241.94,317.36Zm26.61-2.8c-.66.12-3.2.65-3.8.82v-.55a16.16,16.16,0,0,0,2.21-.78c-.65-1.23-3.26-6.24-3.75-6.91-.79.15-4.35,1-5.15,1.3a66.19,66.19,0,0,0-.26,7.32,11.78,11.78,0,0,0,2,0l.19.51c-.71.08-2.77.42-3.43.54s-2.09.44-2.6.59l0-.54a16.2,16.2,0,0,0,1.88-.71c.52-1.73,2.47-16.07,2.61-17.08a13.61,13.61,0,0,0-1.84,0l-.12-.52c.69-.08,2.57-.38,3-.45.95-.18,3.2-.65,3.84-.83l0,.54a11.86,11.86,0,0,0-1.65.65c.48,1.05,2.46,4.76,3.82,7.23,1,1.81,3.19,5.77,4.64,7.78.68,0,1.36,0,2.05,0l.17.51C272,314,269.75,314.34,268.55,314.56Zm5.9-1.11a8.84,8.84,0,0,1-6.76-6.16,9.3,9.3,0,0,1,1.33-8.35,10.47,10.47,0,0,1,6-4,19.37,19.37,0,0,1,4.79-.71c0-.36-.15-2-.18-2.31l.47-.27a69.8,69.8,0,0,0,1.74,7.71l-.56,0a20.66,20.66,0,0,0-.73-2c-.73-1-3.3-2.12-6.15-1.28-4,1.18-5.6,5.15-4.47,9,1.4,4.78,6.14,7.78,10.79,6.41a10,10,0,0,0,4.84-2.86v1.14c-.37.61-2.3,2.27-5.76,3.29A11.89,11.89,0,0,1,274.45,313.45Zm24.6-5.77c-.64.18-3.13.93-3.71,1.15l0-.55a16,16,0,0,0,2.14-1c-.76-1.16-3.8-5.93-4.35-6.54-.77.22-4.24,1.38-5,1.76a65.89,65.89,0,0,0,.39,7.31,11.85,11.85,0,0,0,2-.19l.23.49c-.7.15-2.73.66-3.37.84s-2,.63-2.54.82l-.08-.53a16.05,16.05,0,0,0,1.81-.88c.36-1.77,1-16.23,1.08-17.25a13.78,13.78,0,0,0-1.84.17l-.17-.51c.68-.14,2.53-.61,2.9-.71.93-.26,3.13-.94,3.76-1.16l.08.53a12,12,0,0,0-1.59.79c.57,1,2.87,4.52,4.44,6.86,1.15,1.72,3.69,5.46,5.32,7.33.68,0,1.35-.12,2-.2l.21.5C302.48,306.77,300.23,307.35,299.06,307.68Zm8.78-3.21c-1.24.35-5.92,1.71-6.44,1.89l-.06-.54a14.89,14.89,0,0,0,2.2-1c0-.45-1.21-4.83-2-7.68L301,295.2c-.31-1.11-1.64-5.59-1.89-6-.61,0-1.89.22-2.44.32l-.19-.5c.35,0,2.75-.68,3.67-.94.77-.22,3.38-1.07,5.08-1.55a14.22,14.22,0,0,1,6.55-.64,6.81,6.81,0,0,1,5.31,4.91C318.54,295.93,316.32,302.05,307.83,304.47Zm23-3.88c-.19-.66-.31-1.11-.44-1.49-.68.06-5.62,1.33-7,1.72-.75.21-2.49.75-3.34,1l0-.55a16.83,16.83,0,0,0,2.18-1c0-.46-1.23-5-2-7.71l-.32-1.13c-.62-2.21-1.77-6.1-2.07-6.84-.45,0-1.85.22-2.4.3l-.23-.49,2-.48,2-.52c.71-.2,5.91-1.65,6.46-2a10.4,10.4,0,0,0-.14-1.21L326,280c0,.55.81,4.44,1,5.21l-.53,0c0-.17-.34-1.29-.49-1.77-.6-.6-4.09,0-5.27.36,0,.36,1.27,5.13,1.67,6.58l.14.49a20.61,20.61,0,0,0,4.47-1.67,6.72,6.72,0,0,0-.08-1.12l.45-.18c.06.46.6,3.94.71,4.76l-.48-.08c-.12-.52-.28-1.17-.42-1.66a11.77,11.77,0,0,0-4.47.66l.14.49c.42,1.5,2,6.83,2.27,7.53,2.21-.62,4.24-1.39,5.08-2.32,0-.93-.1-1.72-.12-2.3l.47-.29c0,.76.6,4.63.85,5.88Zm21.75-8c-1,.25-3.47.91-4.1,1.11l-.08-.53c.31-.1,1.94-.74,2.38-.9-.27-.91-5-11.58-5.69-13.35l-.09,0c-.23,1.66-1.68,14.64-2,16.22-1-1.38-8.25-12.72-8.75-13.59l-.09,0c.36,3.94.74,11.15,1.63,14.33.43,0,1.72-.11,2.07-.14l.22.5c-.32,0-2.92.61-3.35.72-.6.15-1.73.48-2.45.71l0-.56c.36-.17,1-.44,1.5-.71.1-1.69-.49-14.53-.66-16.64-.63,0-2,.19-2.29.2l-.26-.48c.3,0,2.05-.4,3.24-.69,1-.24,2.71-.72,3.32-.93l0,.54a15.32,15.32,0,0,0-1.59.76c1.21,2.1,5.93,9.53,7.09,11.25.3-1.57,1.62-12.79,1.52-13.37a9.15,9.15,0,0,0-1.6,0l-.24-.49c.72-.13,2.25-.45,3-.64s2.57-.69,3.07-.87l.06.54c-.3.13-1.35.57-1.79.81,1.11,2.67,6.06,13.63,6.83,15.09.59,0,1.52-.09,1.94-.11l.24.49C355,292,353.65,292.31,352.6,292.57Zm12.63-18.91c-.47.26-3.93,8.38-4.06,9.54a14.26,14.26,0,0,0,.21,1.8l.16,1c.11.68.69,4,.89,4.66.29,0,1.81,0,2.26,0l.13.52c-.49,0-2.53.31-4.07.57-.82.13-2.46.46-3.09.61l0-.55a16.13,16.13,0,0,0,1.94-.68c0-.39-.41-3.17-.67-4.78l-.13-.81a15.87,15.87,0,0,0-.34-1.65,72.85,72.85,0,0,0-7-7.93,10.5,10.5,0,0,0-1.64-.09l-.18-.51c.39,0,1.9-.21,4-.55,1.29-.21,2.8-.51,3.11-.61l0,.55c-.39.17-1.39.46-1.89.68,1.77,2.4,4.69,5.69,5.61,6.91.24-.79,2.76-7.23,2.66-8.27-.5,0-1.52-.06-1.83-.06l-.15-.52c.35,0,1.63-.17,2.87-.37,1-.17,2.21-.42,2.73-.55l0,.54C366.39,273.18,365.68,273.43,365.23,273.66Z" style="fill:#fff;fill-rule:evenodd"/><circle cx="237.06" cy="273.31" r="4.91" style="fill:#fff"/><path d="M206.58,254.27c8.83,1.09,16.66,9.81,19.31,17.8a26.77,26.77,0,0,1-11.49-5.54A22.1,22.1,0,0,1,206.58,254.27Z" style="fill:#fff;fill-rule:evenodd"/><path d="M199.47,273.52c6.14-5.44,18.37-6.13,26.42-1.45a34.1,34.1,0,0,1-13,4C208.18,276.52,203.91,275,199.47,273.52Z" style="fill:#fff;fill-rule:evenodd"/><path d="M186.6,240.28c10.55,3.26,18.24,15.62,19.74,26A33.23,33.23,0,0,1,193.49,257,27.48,27.48,0,0,1,186.6,240.28Z" style="fill:#fff;fill-rule:evenodd"/><path d="M173.83,261.41c8.83-5.08,23.88-2.86,32.5,4.85a42.23,42.23,0,0,1-16.84,1.66C183.68,267.23,178.87,264.28,173.83,261.41Z" style="fill:#fff;fill-rule:evenodd"/><path d="M173.78,225.62c7.85,5.7,10.74,18.16,9.05,27.19a29.19,29.19,0,0,1-8.06-11.36A24.12,24.12,0,0,1,173.78,225.62Z" style="fill:#fff;fill-rule:evenodd"/><path d="M156.2,241.66c8.62-2.42,21,2.73,26.64,11.16a37.18,37.18,0,0,1-14.7-2.23C163.33,248.75,159.87,245.19,156.2,241.66Z" style="fill:#fff;fill-rule:evenodd"/><path d="M163,210c6.86,6.06,8.44,18,6,26.34A27.54,27.54,0,0,1,162.5,225,22.76,22.76,0,0,1,163,210Z" style="fill:#fff;fill-rule:evenodd"/><path d="M144.93,223.71c8.3-1.56,19.46,4.28,24.1,12.67a35,35,0,0,1-13.63-3.31C151,231,148.08,227.33,144.93,223.71Z" style="fill:#fff;fill-rule:evenodd"/><path d="M158.33,193.83c4.51,7.31,2.67,18.47-1.75,25.3a25.84,25.84,0,0,1-2.77-12A21.36,21.36,0,0,1,158.33,193.83Z" style="fill:#fff;fill-rule:evenodd"/><path d="M138.91,200.67c7.85,1.08,16,9.62,17.67,18.46a32.84,32.84,0,0,1-11.14-7C142.19,209,140.64,204.84,138.91,200.67Z" style="fill:#fff;fill-rule:evenodd"/><path d="M155.37,178.86c2.92,7-.24,16.51-5.05,21.86a22.86,22.86,0,0,1-.74-10.87A18.91,18.91,0,0,1,155.37,178.86Z" style="fill:#fff;fill-rule:evenodd"/><path d="M136.69,182.68c6.78,1.76,13.1,10.1,13.63,18a29.09,29.09,0,0,1-9.07-7.3C138.72,190.29,137.78,186.52,136.69,182.68Z" style="fill:#fff;fill-rule:evenodd"/><path d="M142.76,163.85C148.43,169,149.61,179,147.5,186a23.1,23.1,0,0,1-5.33-9.62A19.07,19.07,0,0,1,142.76,163.85Z" style="fill:#fff;fill-rule:evenodd"/><path d="M269.08,254.27c-8.82,1.09-16.66,9.81-19.31,17.8a26.78,26.78,0,0,0,11.49-5.54A22.09,22.09,0,0,0,269.08,254.27Z" style="fill:#fff;fill-rule:evenodd"/><path d="M276.19,273.52c-6.14-5.44-18.37-6.13-26.42-1.45a34.1,34.1,0,0,0,13,4C267.47,276.52,271.75,275,276.19,273.52Z" style="fill:#fff;fill-rule:evenodd"/><path d="M289.06,240.28c-10.56,3.26-18.24,15.62-19.73,26A33.25,33.25,0,0,0,282.17,257,27.48,27.48,0,0,0,289.06,240.28Z" style="fill:#fff;fill-rule:evenodd"/><path d="M301.83,261.41c-8.84-5.08-23.88-2.86-32.5,4.85a42.22,42.22,0,0,0,16.84,1.66C292,267.23,296.79,264.28,301.83,261.41Z" style="fill:#fff;fill-rule:evenodd"/><path d="M301.88,225.62c-7.85,5.7-10.74,18.16-9.05,27.19a29.21,29.21,0,0,0,8.05-11.36A24.11,24.11,0,0,0,301.88,225.62Z" style="fill:#fff;fill-rule:evenodd"/><path d="M319.46,241.66c-8.62-2.42-21,2.73-26.63,11.16a37.17,37.17,0,0,0,14.7-2.23C312.33,248.75,315.79,245.19,319.46,241.66Z" style="fill:#fff;fill-rule:evenodd"/><path d="M312.67,210c-6.86,6.06-8.44,18-6,26.34A27.58,27.58,0,0,0,313.16,225,22.79,22.79,0,0,0,312.67,210Z" style="fill:#fff;fill-rule:evenodd"/><path d="M330.73,223.71c-8.3-1.56-19.46,4.28-24.1,12.67a35,35,0,0,0,13.63-3.31C324.61,231,327.57,227.33,330.73,223.71Z" style="fill:#fff;fill-rule:evenodd"/><path d="M317.33,193.83c-4.51,7.31-2.67,18.47,1.75,25.3a25.84,25.84,0,0,0,2.77-12A21.37,21.37,0,0,0,317.33,193.83Z" style="fill:#fff;fill-rule:evenodd"/><path d="M336.75,200.67c-7.85,1.08-16,9.62-17.67,18.46a32.84,32.84,0,0,0,11.14-7C333.47,209,335,204.84,336.75,200.67Z" style="fill:#fff;fill-rule:evenodd"/><path d="M320.29,178.86c-2.92,7,.24,16.51,5.05,21.86a22.87,22.87,0,0,0,.74-10.87A18.89,18.89,0,0,0,320.29,178.86Z" style="fill:#fff;fill-rule:evenodd"/><path d="M339,182.68c-6.78,1.76-13.1,10.1-13.63,18a29.06,29.06,0,0,0,9.07-7.3C336.94,190.29,337.88,186.52,339,182.68Z" style="fill:#fff;fill-rule:evenodd"/><path d="M332.9,163.85C327.23,169,326.05,179,328.16,186a23.08,23.08,0,0,0,5.33-9.62A19.06,19.06,0,0,0,332.9,163.85Z" style="fill:#fff;fill-rule:evenodd"/><polygon points="191.88 116.16 192.44 121.88 197.46 124.67 192.2 126.97 191.1 132.61 187.29 128.31 181.58 129.01 184.49 124.06 182.06 118.85 187.67 120.09 191.88 116.16" style="fill:#fff;fill-rule:evenodd"/><polygon points="212.41 105.3 214.21 110.77 219.72 112.39 215.08 115.78 215.24 121.52 210.58 118.16 205.17 120.09 206.93 114.62 203.42 110.07 209.17 110.05 212.41 105.3" style="fill:#fff;fill-rule:evenodd"/><polygon points="182.38 138 185.5 142.83 191.24 143 187.61 147.46 189.23 152.98 183.87 150.9 179.12 154.14 179.43 148.4 174.88 144.89 180.44 143.41 182.38 138" style="fill:#fff;fill-rule:evenodd"/><path d="M209.63,343.29c0-1.41,0-3.91-.1-4.4-.27-.06-1.13-.17-1.47-.22l-.06-.33,1.27,0,1.25,0c.45,0,3.78,0,4.16-.11a6.79,6.79,0,0,0,.11-.74l.32-.06c-.07.33-.25,2.77-.28,3.26l-.31-.11c0-.11,0-.82,0-1.13-.25-.45-2.43-.66-3.19-.66,0,.22-.1,3.25-.1,4.18v.31a12.65,12.65,0,0,0,2.93-.25,4.08,4.08,0,0,0,.14-.68l.3,0c0,.28-.3,2.44-.37,2.94l-.27-.13c0-.33,0-.74,0-1.05a7.23,7.23,0,0,0-2.76-.35v.31c0,1,.06,4.39.1,4.84a7.45,7.45,0,0,0,3.4-.53c.15-.55.23-1,.31-1.38l.33-.09c-.1.46-.41,2.85-.47,3.63l-.3-.06c0-.42,0-.71,0-1-.41-.08-3.55-.14-4.44-.14-.48,0-1.6,0-2.15.06l.07-.33a10,10,0,0,0,1.46-.22c.06-.28.1-3.18.1-4.91Z" style="fill:#fff"/><path d="M216.52,351c0-.22.23-2,.23-2.58,0-.41.09-2.11,0-2.48l.33.09a12.23,12.23,0,0,0,.1,1.38,2.44,2.44,0,0,0,2.19,1.71,2,2,0,0,0,2-2c0-1.27-.89-1.9-1.81-2.56-1.39-1-2.49-1.89-2.49-3.66a2.72,2.72,0,0,1,2.91-2.77,7.25,7.25,0,0,1,1.91.28c.1-.38.17-.85.25-1.27l.33,0a35.24,35.24,0,0,0-.34,4.31l-.33-.16a11.51,11.51,0,0,0-.06-1.2,2.09,2.09,0,0,0-1.88-1.41,1.59,1.59,0,0,0-1.73,1.57c0,1,1,1.57,2,2.33s2.36,1.7,2.36,3.68a3.28,3.28,0,0,1-3.48,3.43,4.61,4.61,0,0,1-2-.39c-.07.3-.21,1.05-.31,1.64Z" style="fill:#fff"/><path d="M227.21,342.92c0-1.16,0-3.49-.07-3.85-2.26,0-3.28.39-3.67.66a12.6,12.6,0,0,0-.28,1.48l-.33.09c.06-.76.23-2.72.21-4l.33.06c0,.2,0,.69.08,1,.23,0,2.66.15,4.57.15s4.5-.11,4.73-.15c.06-.19.14-.68.2-1l.35-.06c-.08.36-.41,3.59-.45,4.06l-.33-.09c0-.63,0-1.28,0-1.62a9.34,9.34,0,0,0-3.69-.66c0,.42-.07,2.72-.07,3.85v.71c0,1.38,0,4,.07,5.3.27,0,1.56.19,1.83.22l.06.33c-.34,0-2-.06-2.77-.06s-2.34,0-2.75.06l.07-.33,1.81-.22c0-1.23.07-3.93.07-5.3Z" style="fill:#fff"/><path d="M234,349.65l0-1.68,1.64-.35.07,1.68Z" style="fill:#fff"/><path d="M243.62,346.09c-.06.58-.2,1.67-.31,2.63s-.09.74-.17,2l-.31-.11a8.75,8.75,0,0,0-.07-1.12c-1.54,0-2.49,0-3.43,0h-3a23.27,23.27,0,0,0,3.09-2.75,6.73,6.73,0,0,0,2.08-4.45c0-2.48-1.35-3.37-2.31-3.37a1.75,1.75,0,0,0-1.32.41c-.1.47-.28,1.64-.33,1.92l-.34.08a30.13,30.13,0,0,0,.3-4l.33.11c0,.38,0,.6.1,1a3.79,3.79,0,0,1,.69-.16,5.08,5.08,0,0,1,.87-.06c2.34,0,3.65,1.26,3.65,3.19s-1.08,3.46-2.55,5a23.35,23.35,0,0,1-2.11,1.91v0l1.47,0a7,7,0,0,0,3-.58,13.8,13.8,0,0,0,.37-1.53Z" style="fill:#fff"/><path d="M245.7,348.22a7,7,0,0,1-1-3.95c0-3.44,1.83-6.12,4.12-6.12a3.29,3.29,0,0,1,2.92,1.56,6.91,6.91,0,0,1,1,3.82c0,3.44-1.83,6.13-4.13,6.13A3.42,3.42,0,0,1,245.7,348.22Zm2.79-9.47c-1.67,0-2.24,2.63-2.24,4.66,0,2.18.6,5.66,2.58,5.66,1.67,0,2.24-2.64,2.24-4.65C251.07,342.21,250.49,338.75,248.49,338.75Z" style="fill:#fff"/><path d="M257,343.85c0,2.06,0,4.75.07,5.06.28.06,1.7.2,2,.24l.07.33c-.37,0-2.29-.06-3-.06s-2.75,0-3.13.06l.06-.33,2.27-.24c.06-.68.07-3.21.07-4.76v-1.05c0-.52,0-3-.07-3.66-.61,0-1.66.23-2.24.33l-.1-.33c.52-.14,2.62-.9,4.13-1.43-.07.79-.17,3.19-.17,5.17Z" style="fill:#fff"/><path d="M259.74,341c.13-.88.24-2.83.31-3.71l.3.11c0,.3,0,.6,0,1,.58.06,1.32.06,2.15.06h3.2c-.85,1.08-2.55,3.1-3.11,3.87,2,.58,3.23,1.68,3.23,3.19a4.15,4.15,0,0,1-1.26,2.91,4.5,4.5,0,0,1-3.26,1.29,3.87,3.87,0,0,1-1.4-.17,2.24,2.24,0,0,0-.2.69l-.33,0a26.66,26.66,0,0,0,.23-3.62l.33.16a12,12,0,0,0,.06,1.35,2.14,2.14,0,0,0,1.93.93,2.55,2.55,0,0,0,2.36-2.64c0-1.75-1.41-2.74-3.17-3.19.38-.44,2.08-2.5,2.86-3.59h-2.09a4.6,4.6,0,0,0-1.56.2,5.32,5.32,0,0,0-.25,1.05Z" style="fill:#fff"/><polygon points="127.35 343.38 192.9 340.97 199.97 343.38 192.9 345.8 127.35 343.38" style="fill:#fff"/><polygon points="346.78 343.38 281.23 340.97 274.15 343.38 281.23 345.8 346.78 343.38" style="fill:#fff"/><path d="M118.72,64.45l-.16-1.22L121.09,65l.75-6.46c3,2.2,4.05,5,3.8,8.61l1.6-1.11-1.16,2.64c.09.16.13.34.23.4C131.87,72,137.42,75,143,77.9a2.23,2.23,0,0,1,1.3,3.11c-1,3.06-2.53,5.3-6.12,5.08a4.86,4.86,0,0,1-2.56-.69,4.09,4.09,0,0,0-4.16-.71c-5,1.62-5.87,1.6-11.44.38,1.06,5.64,2.08,11.06,3.11,16.48,0,.07,0,.16.06.2,2.26,2,4.3,4.39,6.88,5.83,1.49.84,3.84.21,5.8.13,2.84-.12,5.68-.51,8.51-.45,2.38,0,4.08,3.42,3,5.6-.36.75-.69,1.52-1.07,2.35a14.38,14.38,0,0,1,2.62.61c2.09.94,3.42,2.23,3,4.93-.66,4-.76,8,1.84,11.51a1.33,1.33,0,0,1,.29,1c-.91,2.56.47,4.85.8,7.25a9,9,0,0,1-2.16,7c-1.24-1.21-2.46-2.28-3.54-3.47-2.1-2.31-2-3.05-.1-5.45a2.33,2.33,0,0,0,.18-2.16c-1-1.44-1.14-2.71,0-4.11a1.14,1.14,0,0,0,.28-.79c-.73-3.39-1-7-3.71-9.59-.08-.08-.26,0-.75-.1-.28,2.37-.67,4.73-.79,7.11a4.07,4.07,0,0,1-1.91,3.5c-2,1.43-3.65,3.32-5.52,4.94-1.49,1.29-3.09,2.46-4.63,3.68l-.82-.32q.45-3.82.9-7.64a.27.27,0,0,1,.1-.19c2.16-1.28,4.21-2.87,6.53-3.71,1.17-.43,1.69-.69,1.7-1.83,0-1.7,0-3.41,0-5.78-1.65,1-2.84,1.62-4,2.35-2.74,1.77-5.6,3.39-8.14,5.41-2.76,2.2-5.9,3.75-7.89,7.16-5.37,9.21-12.63,16.71-22.53,21.26l-3,1.37c.34,1.81.69,3.6,1,5.39a14.67,14.67,0,0,1-2.85,12.13c-3,3.8-6.28,7.39-9.48,11-3.55,4-3.48,7.69.63,11.19,4.44,3.79,9.17,7.23,13.56,11.06,1.93,1.68,3.35,4,5.28,6.3-3.64,1-6.78,1.29-9.91.37-1.4-.41-2.33-1.42-1.35-3.11.75-1.29.21-2.09-1.16-2.24s-1.81-1-2.34-2.11a14.2,14.2,0,0,0-2.61-3.83,74.55,74.55,0,0,0-6.9-6.4,18.77,18.77,0,0,0-5.2-2.78c-2.85-1-3.44-2-2.18-4.76s2.61-5.23,3.75-7.92a22.33,22.33,0,0,0,.9-4.06c-.58,0-.79,0-.81,0-2.33,5-6.31,8.45-10.78,11.58a51.51,51.51,0,0,0-8.38,7.57,7.17,7.17,0,0,0-1.35,4.74A19.86,19.86,0,0,0,58.93,215c.26.33.69.79.62,1.09-.63,2.73,1.82,3.45,3.1,4.93.46.54,1.17,1.4,1,1.82a3.18,3.18,0,0,1-1.79,1.84c-2.66.63-5-.4-7.27-1.8-.11-.07-.29-.22-.27-.31.54-2.64-1.34-4.75-1.58-7.2-.36-3.61-.39-7.27-.86-10.87a24.75,24.75,0,0,0-1.72-5,34,34,0,0,1-1.22-3.39c-.37-1.5.17-2.51,1.72-3.19,5.07-2.21,7.06-6.69,5.26-11.9a43.08,43.08,0,0,0-2.84-6.21,24.21,24.21,0,0,1-3.18-12.9,3.71,3.71,0,0,0-1.2-2.66,17.83,17.83,0,0,0-4.52-2.78A7.78,7.78,0,0,0,34.41,159,37.75,37.75,0,0,0,31,164.45c-2.86,5.2-6,6.91-11.9,6.36l7-3.14-.27-.74a33.27,33.27,0,0,1-25.77,2,31.73,31.73,0,0,0,19.77-1.74c-5.63.79-10.71-1.07-15.78-3,5.88.32,11.87,3.76,17.57-.74-6.76-.7-13.52-1.12-19.45-5.29,3.06.73,5.94,1.45,8.85,2.11,5.47,1.24,10.05.33,13.42-4.79A50,50,0,0,1,31,147.92c4.39-4.39,10.64-3.86,13.13,2,1.32,3.1,3,6,6.72,7.3,2.36-5.94,5.69-11.12,11.26-14.51,3.78-2.37,5.61-3.28,8-4.87,2.07-1.36,5.52-3.11,6.33-3.77a31.55,31.55,0,0,1,4.55-2.9c6.22-3.31,8.84-9.22,11.16-15.35a2.23,2.23,0,0,0,.13-1.25,11,11,0,0,1,1.14-8.86,6.46,6.46,0,0,0,.28-2c-3.07.85-4.15,3.45-6,5.24-.53-5,4.74-7.2,5.37-11.4l-7.43,4-.37-.42a16.58,16.58,0,0,0,5.51-8.28c.42-1.39,1.78-2.5,2.46-4.15l-6.68,4.28c1.73-4.66,6.58-6.79,9-11.71l-6.47,2.28-.26-.22c1.89-1.36,3.69-2.86,5.69-4S97,77.78,97.4,75.8l-5.88,2.34-.38-.63,8.58-5.68-8.45,2.53c3-3.26,7.06-4.09,11-5.44H96.81l-.09-.32,8.2-1.91-5.05-2,.1-.45h10.22l-1.74-9.56C112.5,57.62,114.1,62.58,118.72,64.45Zm21.87,49.45c-3-.27-4.43,2.17-6.7,2.74l.16.51,6.22-.5Z" style="fill:#fff;fill-rule:evenodd"/><rect x="233.84" y="75.32" width="6.35" height="64.45" style="fill:#fff"/><rect x="256.51" y="160.12" width="57.68" height="5.59" style="fill:#fff"/><rect x="255.09" y="120.34" width="11.59" height="11.59" transform="translate(-12.79 221.39) rotate(-44.99)" style="fill:#fff"/><rect x="271.48" y="103.95" width="11.59" height="11.59" transform="translate(3.62 228.23) rotate(-45.01)" style="fill:#fff"/><rect x="304.85" y="105.4" width="7.5" height="11.59" transform="translate(11.77 250.79) rotate(-45)" style="fill:#fff"/><rect x="271.48" y="136.73" width="11.59" height="11.59" transform="translate(-19.56 237.83) rotate(-45.01)" style="fill:#fff"/><rect x="287.87" y="120.34" width="11.59" height="11.59" transform="translate(-3.19 244.57) rotate(-45)" style="fill:#fff"/><rect x="239.46" y="73.02" width="6.38" height="11.59" transform="translate(15.34 194.67) rotate(-45)" style="fill:#fff"/><rect x="238.7" y="103.95" width="11.59" height="11.59" transform="translate(-5.99 205.03) rotate(-45)" style="fill:#fff"/><polygon points="269.08 93.36 259.66 86.39 252.69 93.36 260.88 101.55 269.08 93.36" style="fill:#fff"/><polygon points="310.05 150.72 313.47 147.29 314.07 138.35 310.05 134.33 301.86 142.53 310.05 150.72" style="fill:#fff"/><polygon points="285.46 158.91 289.97 163.42 297.38 163.39 301.86 158.91 293.66 150.72 285.46 158.91" style="fill:#fff"/><rect x="255.09" y="136.73" width="11.59" height="11.59" transform="translate(-24.38 226.19) rotate(-44.99)" style="fill:#fff"/><rect x="238.7" y="120.34" width="11.59" height="11.59" transform="translate(-17.58 209.83) rotate(-45)" style="fill:#fff"/><polygon points="269.08 158.91 273.08 162.91 281.26 163.12 285.46 158.91 277.27 150.72 269.08 158.91" style="fill:#fff"/><rect x="255.09" y="103.95" width="11.59" height="11.59" transform="translate(-1.2 216.6) rotate(-45)" style="fill:#fff"/><polygon points="301.86 158.91 310.05 167.11 314.19 158.91 310.05 150.72 301.86 158.91" style="fill:#fff"/><rect x="238.7" y="87.57" width="11.59" height="11.59" transform="translate(5.6 200.23) rotate(-45)" style="fill:#fff"/><rect x="287.87" y="136.73" width="11.59" height="11.59" transform="translate(-14.77 249.38) rotate(-45)" style="fill:#fff"/><rect x="271.48" y="120.34" width="11.59" height="11.59" transform="translate(-7.97 233.03) rotate(-45)" style="fill:#fff"/><rect x="287.87" y="103.95" width="11.59" height="11.59" transform="translate(8.4 239.78) rotate(-45)" style="fill:#fff"/><rect x="304.25" y="120.34" width="11.59" height="11.59" transform="translate(1.61 256.16) rotate(-45)" style="fill:#fff"/><path d="M238.24,170.35a5.76,5.76,0,0,0-.56,1.64,3.77,3.77,0,0,0,.44,2.89,6.17,6.17,0,0,0,.47.52c.14-1,.28-1.93.42-2.92q-.23-.66-.69-1.93Z" style="fill:#fff"/><path d="M272.54,140.17s-20.77-1.68-35.48-16.69c-14.7,15-35.47,16.69-35.47,16.69a83.18,83.18,0,0,0,1.57,18.94l.21,1H161l1.44,5.55h42.27c3.71,13.29,11.65,28.52,28.57,37.08l.57.31v52.75l6.39,0,0-52.78.55-.26C275.35,185.4,272.54,140.17,272.54,140.17Zm-23.27,26a7.79,7.79,0,0,1,2.74,1.63,12,12,0,0,0-1,1.65q-.43.87-.93,2.2h-.56a10.23,10.23,0,0,0-.39-1.4,4.26,4.26,0,0,0-.83-1.4,4.71,4.71,0,0,0-1.42-1.08,3.73,3.73,0,0,0-.86-.29c-.55.86-1.07,1.68-1.54,2.43q-1.1,1.77-1.92,3.19-.24,1.7-.49,3.63c-.11.81-.2,1.59-.3,2.38.67.33,1.37.65,2.12.93a16.41,16.41,0,0,1,3.23,1.63,7,7,0,0,1,2.29,2.48,6.18,6.18,0,0,1,.4,4,12,12,0,0,1-4.24,7.27,12.35,12.35,0,0,1-3.95,2.16,15.35,15.35,0,0,1-4.94.75,11.16,11.16,0,0,1-4.54-.76,10.23,10.23,0,0,1-2.7-1.72,13.13,13.13,0,0,0,.91-1.91c.21-.57.43-1.29.67-2.18h.56a7.37,7.37,0,0,0,.71,1.68,6,6,0,0,0,1.27,1.54,6.39,6.39,0,0,0,1.92,1.12,7.28,7.28,0,0,0,2.62.44,7.64,7.64,0,0,0,2.85-.53,8,8,0,0,0,2.33-1.42,7.88,7.88,0,0,0,1.68-2.11,8.12,8.12,0,0,0,.9-2.59,4.35,4.35,0,0,0-.52-3.35,7.06,7.06,0,0,0-2.37-2.07c-.56-.31-1.15-.6-1.77-.88l0,.33q-.17,1.58-.23,2.55a17.84,17.84,0,0,0-1.88-.09,19,19,0,0,0-1.9.09c.29-1.23.58-2.67.85-4.3a13.76,13.76,0,0,1-1.5-.93,7.19,7.19,0,0,1-2.27-2.64,7,7,0,0,1-.35-4.32,9.47,9.47,0,0,1,3.51-6l-.11-.3,0-.11h-.13c0-.09,0-.17,0-.26L236,164.26q-.73-2-1.37-3.81c-.44-1.21-.83-2.3-1.18-3.26s-.62-1.69-.81-2.18l1,.16a7.72,7.72,0,0,0,1.05.07,8.27,8.27,0,0,0,1.07-.07l1.09-.16c.48,1.63,1,3.21,1.48,4.8.16-1.19.33-2.38.47-3.59l.49-4.13L236,152l-3.33,0-3.33,0-3.34.07-.48,4.13q-.35,3-.62,6t-.5,5.78a12.36,12.36,0,0,0-1.55-.09,12.67,12.67,0,0,0-1.57.09q.43-2.85.85-5.78t.78-6l.92-7.9q.35-3,.62-5.94t.52-5.94l.78.16a4.15,4.15,0,0,0,.76.07,4.43,4.43,0,0,0,.77-.07l.82-.16q-.45,3-.87,5.94t-.77,5.95l-.19,1.61,3.32.09q1.6,0,3.33,0t3.34,0l3.34-.09.19-1.61q.35-3,.61-5.95t.52-5.95l.78.16a4.09,4.09,0,0,0,.76.07,4.41,4.41,0,0,0,.77-.07l.82-.16q-.45,3-.87,5.95t-.77,5.94l-.92,7.9q-.36,3-.62,6c-.13,1.43-.25,2.82-.37,4.21l.07.22c.24-.09.45-.21.7-.29a13.75,13.75,0,0,1,4.07-.63c.51-.82,1-1.63,1.53-2.47q1.26-2.07,2.44-4.15t2.23-4.06a6.57,6.57,0,0,0,1.47.23,7.43,7.43,0,0,0,1.54-.23q-2.33,3.35-4.18,6.06c-1.18,1.73-2.22,3.29-3.15,4.71A9.72,9.72,0,0,1,249.27,166.22Z" style="fill:#fff"/><path d="M240.48,168l.72,2.16c.61-.9,1.25-1.88,1.92-2.95a5.69,5.69,0,0,0-2.65.79Z" style="fill:#fff"/><path d="M315.67,140a20.2,20.2,0,0,1,.61-2.71c.39-1.39.59-2.21.35-2.89a4.75,4.75,0,0,1,.78-4.27c1.8-2.44,1.78-5.3,1.2-8.84a7.36,7.36,0,0,1,3.44-7.87c0-2.1-.11-3.36-.12-3.59l-.23-3.66-3.65-.3c-.46,0-46.09-4.14-78-36.69l-3-3.09-3,3.09c-31.87,32.55-77.5,36.65-78,36.69l-3.66.3-.23,3.66c0,.23-.09,1.51-.12,3.65a7.35,7.35,0,0,1,3.34,7.8c-.58,3.54-.6,6.4,1.2,8.84a4.75,4.75,0,0,1,.78,4.27c-.24.68,0,1.5.35,2.89a19.86,19.86,0,0,1,.61,2.71,12.53,12.53,0,0,1-2.84,9.58l-.4.52a197.54,197.54,0,0,0,4.75,20.69c12.44,43.19,38.57,74.13,75.57,89.47l1.62.67,1.62-.67c37-15.34,63.13-46.28,75.57-89.47A197.41,197.41,0,0,0,319,150.22l-.47-.63A12.53,12.53,0,0,1,315.67,140ZM306,168.71c-11.71,40.44-34.92,68.37-69,83.06-34.07-14.69-57.28-42.63-69-83.06a197.54,197.54,0,0,1-7.53-54.82c11.73-1.62,47.94-8.65,76.52-35.79,28.58,27.14,64.79,34.16,76.52,35.79A197.55,197.55,0,0,1,306,168.71Z" style="fill:#fff"/><path d="M322,120c0-.19,0-.38,0-.56A4.93,4.93,0,0,0,322,120Z" style="fill:#fff"/><path d="M365.59,54.65l-1.74,9.56h10.22l.1.45-5,2,8.2,1.91-.09.32h-5.46c3.93,1.35,8,2.18,11,5.44l-8.45-2.53,8.58,5.68-.38.63-5.88-2.34c.43,2,.89,2.27,2.87,3.45s3.8,2.69,5.69,4l-.26.22-6.47-2.28c2.44,4.92,7.3,7,9,11.71l-6.68-4.28c.68,1.65,2,2.76,2.46,4.15a16.56,16.56,0,0,0,5.51,8.28l-.37.42-7.43-4c.63,4.2,5.91,6.38,5.37,11.4-1.87-1.8-3-4.39-6-5.24a6.47,6.47,0,0,0,.28,2,11,11,0,0,1,1.14,8.86,2.22,2.22,0,0,0,.13,1.25c2.32,6.13,4.93,12,11.16,15.35a31.56,31.56,0,0,1,4.54,2.9c.8.66,4.26,2.41,6.33,3.77,2.43,1.59,4.26,2.5,8,4.87,5.58,3.39,8.91,8.57,11.27,14.51,3.74-1.27,5.4-4.2,6.72-7.3,2.5-5.86,8.74-6.39,13.13-2a49.84,49.84,0,0,1,6.59,7.53c3.37,5.12,7.94,6,13.42,4.79,2.9-.66,5.79-1.38,8.85-2.11-5.93,4.17-12.69,4.59-19.45,5.29,5.7,4.51,11.69,1.06,17.57.74-5.07,1.93-10.15,3.78-15.78,3A31.73,31.73,0,0,0,474,168.89a33.27,33.27,0,0,1-25.77-2l-.27.74,7,3.14c-5.88.56-9-1.15-11.9-6.36a37.63,37.63,0,0,0-3.43-5.41,7.78,7.78,0,0,0-9.77-2.53,17.8,17.8,0,0,0-4.52,2.78,3.72,3.72,0,0,0-1.2,2.66,24.23,24.23,0,0,1-3.18,12.9,42.87,42.87,0,0,0-2.84,6.21c-1.81,5.2.19,9.68,5.26,11.9,1.55.68,2.09,1.69,1.72,3.19a33.92,33.92,0,0,1-1.22,3.39,24.82,24.82,0,0,0-1.72,5c-.47,3.6-.49,7.26-.85,10.87-.25,2.44-2.13,4.55-1.58,7.2,0,.08-.16.24-.28.31-2.23,1.4-4.6,2.43-7.27,1.8a3.19,3.19,0,0,1-1.79-1.84c-.16-.43.55-1.29,1-1.82,1.28-1.49,3.72-2.2,3.1-4.93-.07-.3.35-.76.62-1.09a19.87,19.87,0,0,0,4.07-11.73,7.18,7.18,0,0,0-1.35-4.74,51.54,51.54,0,0,0-8.38-7.57c-4.47-3.12-8.45-6.53-10.78-11.58,0-.05-.24,0-.81,0a22.5,22.5,0,0,0,.9,4.06c1.13,2.69,2.55,5.26,3.74,7.92s.66,3.72-2.18,4.76a18.77,18.77,0,0,0-5.2,2.78,74.66,74.66,0,0,0-6.91,6.4,14.22,14.22,0,0,0-2.61,3.83c-.53,1.12-1,2-2.34,2.11s-1.91,1-1.16,2.24c1,1.69.06,2.7-1.35,3.11-3.13.92-6.27.66-9.91-.37,1.93-2.35,3.35-4.61,5.28-6.3,4.39-3.83,9.13-7.28,13.56-11.06,4.11-3.5,4.18-7.17.63-11.19-3.21-3.64-6.48-7.22-9.49-11A14.68,14.68,0,0,1,378,164.51c.32-1.79.67-3.58,1-5.39l-3-1.37c-9.9-4.55-17.15-12-22.52-21.26-2-3.41-5.13-5-7.89-7.16-2.54-2-5.4-3.64-8.14-5.41-1.13-.73-2.32-1.38-4-2.35,0,2.37,0,4.07,0,5.78,0,1.14.53,1.41,1.7,1.83,2.32.85,4.37,2.43,6.53,3.71a.28.28,0,0,1,.1.19q.46,3.82.9,7.64l-.82.32c-1.55-1.22-3.14-2.39-4.63-3.68-1.87-1.62-3.52-3.51-5.52-4.94a4.07,4.07,0,0,1-1.91-3.5c-.12-2.38-.52-4.74-.79-7.11-.49.06-.67,0-.75.1-2.68,2.63-3,6.19-3.71,9.59a1.14,1.14,0,0,0,.28.79c1.1,1.4.92,2.66,0,4.11a2.33,2.33,0,0,0,.18,2.16c1.91,2.39,2,3.13-.1,5.45-1.08,1.19-2.3,2.26-3.54,3.47a9,9,0,0,1-2.16-7c.33-2.4,1.7-4.69.79-7.25a1.34,1.34,0,0,1,.29-1c2.6-3.52,2.5-7.53,1.84-11.51-.44-2.7.88-4,3-4.93a14.39,14.39,0,0,1,2.62-.61c-.38-.83-.72-1.59-1.07-2.35-1-2.18.67-5.56,3-5.6,2.83-.05,5.67.34,8.51.45,2,.08,4.3.71,5.79-.13,2.57-1.45,4.62-3.84,6.88-5.83,0,0,0-.13.06-.2L354,85.06c-5.57,1.22-6.42,1.24-11.44-.38a4.09,4.09,0,0,0-4.16.71,4.85,4.85,0,0,1-2.56.69c-3.6.22-5.14-2-6.13-5.08A2.23,2.23,0,0,1,331,77.9C336.61,75,342.16,72,347.72,69c.1-.05.14-.23.23-.4L346.79,66l1.6,1.11c-.25-3.61.76-6.41,3.8-8.61l.75,6.46,2.53-1.75-.16,1.22C359.93,62.58,361.53,57.62,365.59,54.65Zm-31.83,62,6.22.5.16-.51c-2.27-.57-3.68-3-6.7-2.74C333.57,115,333.66,115.74,333.76,116.64Z" style="fill:#fff;fill-rule:evenodd"/><path d="M200.06,204.06l1.63,1.66a6.88,6.88,0,0,0,4.76,2,3.72,3.72,0,0,0,2.61-1.41c1.87-2.22,2.21-4.56,1-6.79-1.78-3.28-7.17-4.82-11.77-4a8.85,8.85,0,0,0-3.26,6.11C197.53,201.28,198.77,202.63,200.06,204.06Zm3.81-10.56a8.82,8.82,0,0,0-4,.94H200c3.19-.46,9,.76,11,4.54,1.43,2.62,1,5.48-1.13,8a4.8,4.8,0,0,1-3.37,1.8,7.85,7.85,0,0,1-5.57-2.24l-1.73-1.76c-1.31-1.46-2.17-2.41-4.19-2.1l0,0a8.87,8.87,0,1,0,8.86-9.22Z" style="fill:#fff"/><circle cx="270.29" cy="202.37" r="4.79" style="fill:#fff"/><path d="M269.31,197.17a3.36,3.36,0,0,1,2.14,0,5.67,5.67,0,0,0-.42-2.93c-.67-1.73-1.19-2.67-1-4.67a9,9,0,0,0-.25,4.27A6.22,6.22,0,0,1,269.31,197.17Z" style="fill:#fff"/><path d="M265.91,199.38a3.36,3.36,0,0,1,1.51-1.51,5.64,5.64,0,0,0-2.36-1.78c-1.7-.75-2.73-1.05-4-2.6a9,9,0,0,0,2.84,3.2A6.2,6.2,0,0,1,265.91,199.38Z" style="fill:#fff"/><path d="M265.08,203.35a3.35,3.35,0,0,1,0-2.13,5.64,5.64,0,0,0-2.93.42c-1.74.67-2.67,1.19-4.68,1a9,9,0,0,0,4.27.25A6.2,6.2,0,0,1,265.08,203.35Z" style="fill:#fff"/><path d="M267.3,206.74a3.37,3.37,0,0,1-1.51-1.51A5.65,5.65,0,0,0,264,207.6c-.76,1.7-1.05,2.73-2.6,4a9,9,0,0,0,3.2-2.84A6.18,6.18,0,0,1,267.3,206.74Z" style="fill:#fff"/><path d="M271.26,207.58a3.36,3.36,0,0,1-2.13,0,5.64,5.64,0,0,0,.42,2.93c.67,1.73,1.19,2.67,1,4.68a9,9,0,0,0,.25-4.27A6.21,6.21,0,0,1,271.26,207.58Z" style="fill:#fff"/><path d="M274.66,205.36a3.35,3.35,0,0,1-1.51,1.51,5.62,5.62,0,0,0,2.36,1.78c1.7.76,2.73,1.05,4,2.6a9,9,0,0,0-2.84-3.2A6.22,6.22,0,0,1,274.66,205.36Z" style="fill:#fff"/><path d="M275.49,201.39a3.34,3.34,0,0,1,0,2.13,5.65,5.65,0,0,0,2.93-.41c1.73-.67,2.67-1.19,4.68-1a9,9,0,0,0-4.27-.25A6.22,6.22,0,0,1,275.49,201.39Z" style="fill:#fff"/><path d="M273.27,198a3.35,3.35,0,0,1,1.51,1.51,5.64,5.64,0,0,0,1.78-2.37c.76-1.7,1.05-2.73,2.6-4A9,9,0,0,0,276,196,6.2,6.2,0,0,1,273.27,198Z" style="fill:#fff"/><path d="M268.25,197.14s.43-1.6-.37-2.43c-.57-.59-1.06-.51-1.51-1.64,0,0,.15,2.08,1,2.62A3.14,3.14,0,0,1,268.25,197.14Z" style="fill:#fff"/><path d="M265.14,200.11s-.83-1.44-2-1.46c-.82,0-1.11.4-2.22-.09,0,0,1.58,1.36,2.53,1.18A3.16,3.16,0,0,1,265.14,200.11Z" style="fill:#fff"/><path d="M265.05,204.4s-1.6-.43-2.43.37c-.59.57-.51,1.07-1.64,1.51,0,0,2.08-.15,2.62-1A3.16,3.16,0,0,1,265.05,204.4Z" style="fill:#fff"/><path d="M268,207.51s-1.44.83-1.46,2c0,.82.4,1.11-.09,2.22,0,0,1.36-1.58,1.18-2.53A3.13,3.13,0,0,1,268,207.51Z" style="fill:#fff"/><path d="M272.32,207.6s-.43,1.61.37,2.43c.57.58,1.07.5,1.51,1.63,0,0-.15-2.08-1-2.62A3.15,3.15,0,0,1,272.32,207.6Z" style="fill:#fff"/><path d="M275.42,204.63s.83,1.44,2,1.46c.82,0,1.11-.4,2.22.09,0,0-1.58-1.36-2.53-1.18A3.15,3.15,0,0,1,275.42,204.63Z" style="fill:#fff"/><path d="M275.52,200.34s1.61.43,2.43-.37c.58-.57.5-1.07,1.63-1.51,0,0-2.08.15-2.62,1A3.16,3.16,0,0,1,275.52,200.34Z" style="fill:#fff"/><path d="M272.55,197.23s1.44-.83,1.46-2c0-.82-.4-1.11.09-2.22,0,0-1.36,1.58-1.17,2.53A3.16,3.16,0,0,1,272.55,197.23Z" style="fill:#fff"/></svg>